<svg width="2418" height="769" viewBox="0 0 2418 769" fill="none" xmlns="http://www.w3.org/2000/svg">
<g clip-path="url(#clip0_36_137)">
<path d="M1765.57 236.209H1839.66V428.584H1765.57V236.209Z" fill="#E2C6D8"/>
<path d="M1737.12 278.389H1868.11V618.668H1737.12V278.389Z" fill="#E2C6D8"/>
<path d="M1775.48 307.639H1757.79V289.959H1775.48V307.639Z" fill="white"/>
<path d="M1801.49 307.639H1783.8V289.959H1801.49V307.639Z" fill="white"/>
<path d="M1827.52 307.639H1809.82V289.959H1827.52V307.639Z" fill="white"/>
<path d="M1853.53 307.639H1835.84V289.959H1853.53V307.639Z" fill="white"/>
<path d="M1775.48 339.377H1757.79V321.697H1775.48V339.377Z" fill="white"/>
<path d="M1801.49 339.377H1783.8V321.697H1801.49V339.377Z" fill="white"/>
<path d="M1827.52 339.377H1809.82V321.697H1827.52V339.377Z" fill="white"/>
<path d="M1853.53 339.377H1835.84V321.697H1853.53V339.377Z" fill="white"/>
<path d="M1775.48 371.11H1757.79V353.43H1775.48V371.11Z" fill="white"/>
<path d="M1801.49 371.11H1783.8V353.43H1801.49V371.11Z" fill="white"/>
<path d="M1827.52 371.11H1809.82V353.43H1827.52V371.11Z" fill="white"/>
<path d="M1853.53 371.11H1835.84V353.43H1853.53V371.11Z" fill="white"/>
<path d="M1775.48 402.848H1757.79V385.168H1775.48V402.848Z" fill="white"/>
<path d="M1801.49 402.848H1783.8V385.168H1801.49V402.848Z" fill="white"/>
<path d="M1827.52 402.848H1809.82V385.168H1827.52V402.848Z" fill="white"/>
<path d="M1853.53 402.848H1835.84V385.168H1853.53V402.848Z" fill="white"/>
<path d="M1775.48 434.581H1757.79V416.901H1775.48V434.581Z" fill="white"/>
<path d="M1801.49 434.581H1783.8V416.901H1801.49V434.581Z" fill="white"/>
<path d="M1827.52 434.581H1809.82V416.901H1827.52V434.581Z" fill="white"/>
<path d="M1853.53 434.581H1835.84V416.901H1853.53V434.581Z" fill="white"/>
<path d="M1280.2 213.784H1458.62V695.567H1280.2V213.784Z" fill="#E2C6D8"/>
<path d="M1311.34 244.356H1293.64V226.676H1311.34V244.356Z" fill="white"/>
<path d="M1337.35 244.356H1319.65V226.676H1337.35V244.356Z" fill="white"/>
<path d="M1363.37 244.356H1345.67V226.676H1363.37V244.356Z" fill="white"/>
<path d="M1389.38 244.356H1371.7V226.676H1389.38V244.356Z" fill="white"/>
<path d="M1419.64 244.356H1401.95V226.676H1419.64V244.356Z" fill="white"/>
<path d="M1444.56 245.461H1426.87V227.781H1444.56V245.461Z" fill="white"/>
<path d="M1311.34 275.999H1293.64V258.315H1311.34V275.999Z" fill="white"/>
<path d="M1337.35 275.999H1319.65V258.315H1337.35V275.999Z" fill="white"/>
<path d="M1363.37 275.999H1345.67V258.315H1363.37V275.999Z" fill="white"/>
<path d="M1389.38 275.999H1371.7V258.315H1389.38V275.999Z" fill="white"/>
<path d="M1419.64 275.999H1401.95V258.315H1419.64V275.999Z" fill="white"/>
<path d="M1444.56 277.105H1426.87V259.425H1444.56V277.105Z" fill="white"/>
<path d="M1311.34 307.639H1293.64V289.959H1311.34V307.639Z" fill="white"/>
<path d="M1337.35 307.639H1319.65V289.959H1337.35V307.639Z" fill="white"/>
<path d="M1363.37 307.639H1345.67V289.959H1363.37V307.639Z" fill="white"/>
<path d="M1389.38 307.639H1371.7V289.959H1389.38V307.639Z" fill="white"/>
<path d="M1419.64 307.639H1401.95V289.959H1419.64V307.639Z" fill="white"/>
<path d="M1444.56 308.744H1426.87V291.064H1444.56V308.744Z" fill="white"/>
<path d="M1311.34 339.282H1293.64V321.598H1311.34V339.282Z" fill="white"/>
<path d="M1337.35 339.282H1319.65V321.598H1337.35V339.282Z" fill="white"/>
<path d="M1363.37 339.282H1345.67V321.598H1363.37V339.282Z" fill="white"/>
<path d="M1389.38 339.282H1371.7V321.598H1389.38V339.282Z" fill="white"/>
<path d="M1419.64 339.282H1401.95V321.598H1419.64V339.282Z" fill="white"/>
<path d="M1444.56 340.388H1426.87V322.708H1444.56V340.388Z" fill="white"/>
<path d="M1311.34 370.926H1293.64V353.242H1311.34V370.926Z" fill="white"/>
<path d="M1337.35 370.926H1319.65V353.242H1337.35V370.926Z" fill="white"/>
<path d="M1363.37 370.926H1345.67V353.242H1363.37V370.926Z" fill="white"/>
<path d="M1389.38 370.926H1371.7V353.242H1389.38V370.926Z" fill="white"/>
<path d="M1419.64 370.926H1401.95V353.242H1419.64V370.926Z" fill="white"/>
<path d="M1444.56 372.027H1426.87V354.347H1444.56V372.027Z" fill="white"/>
<path d="M1311.34 402.57H1293.64V384.886H1311.34V402.57Z" fill="white"/>
<path d="M1337.35 402.57H1319.65V384.886H1337.35V402.57Z" fill="white"/>
<path d="M1363.37 402.57H1345.67V384.886H1363.37V402.57Z" fill="white"/>
<path d="M1389.38 402.57H1371.7V384.886H1389.38V402.57Z" fill="white"/>
<path d="M1419.64 402.57H1401.95V384.886H1419.64V402.57Z" fill="white"/>
<path d="M1444.56 403.666H1426.87V385.991H1444.56V403.666Z" fill="white"/>
<path d="M1311.34 434.04H1293.64V416.355H1311.34V434.04Z" fill="white"/>
<path d="M1337.35 434.04H1319.65V416.355H1337.35V434.04Z" fill="white"/>
<path d="M1363.37 434.04H1345.67V416.355H1363.37V434.04Z" fill="white"/>
<path d="M1389.38 434.04H1371.7V416.355H1389.38V434.04Z" fill="white"/>
<path d="M1419.64 434.04H1401.95V416.355H1419.64V434.04Z" fill="white"/>
<path d="M1444.56 435.14H1426.87V417.456H1444.56V435.14Z" fill="white"/>
<path d="M1311.34 457.608H1293.64V439.924H1311.34V457.608Z" fill="white"/>
<path d="M1337.35 457.608H1319.65V439.924H1337.35V457.608Z" fill="white"/>
<path d="M1363.37 457.608H1345.67V439.924H1363.37V457.608Z" fill="white"/>
<path d="M1389.38 457.608H1371.7V439.924H1389.38V457.608Z" fill="white"/>
<path d="M1419.64 457.608H1401.95V439.924H1419.64V457.608Z" fill="white"/>
<path d="M1444.56 458.709H1426.87V441.029H1444.56V458.709Z" fill="white"/>
<path d="M1311.34 486.891H1293.64V469.207H1311.34V486.891Z" fill="white"/>
<path d="M1337.35 486.891H1319.65V469.207H1337.35V486.891Z" fill="white"/>
<path d="M1363.37 486.891H1345.67V469.207H1363.37V486.891Z" fill="white"/>
<path d="M1389.38 486.891H1371.7V469.207H1389.38V486.891Z" fill="white"/>
<path d="M1419.64 486.891H1401.95V469.207H1419.64V486.891Z" fill="white"/>
<path d="M1444.56 487.992H1426.87V470.312H1444.56V487.992Z" fill="white"/>
<path d="M188.46 229.738H321.117V685.69H188.46V229.738Z" fill="#E2C6D8"/>
<path d="M203.85 197.525H305.723V319.138H203.85V197.525Z" fill="#E2C6D8"/>
<path d="M210.5 173.016H299.082V203.075H210.5V173.016Z" fill="#E2C6D8"/>
<path d="M232.384 147.684H277.193V177.291H232.384V147.684Z" fill="#E2C6D8"/>
<path d="M251.332 41.375H258.245V197.525H251.332V41.375Z" fill="#E2C6D8"/>
<path d="M268.543 316.213H316.919V578.413H268.543V316.213Z" fill="#E2C6D8"/>
<path d="M1221.85 494.557H1280.2V618.292H1221.85V494.557Z" fill="#E2C6D8"/>
<path d="M26.7083 556.561V633.897H785.791V558.598C785.805 558.073 785.611 557.565 785.251 557.184C784.891 556.802 784.395 556.578 783.871 556.561H26.7083Z" fill="#E2C6D8"/>
<path d="M831.941 214.518V652.852H1012.61V214.518H831.941Z" fill="#E2C6D8"/>
<path d="M868.999 158.139V352.179H984.097V158.139H868.999Z" fill="#E2C6D8"/>
<path d="M899.891 132.666V222.542H953.204V132.666H899.891Z" fill="#E2C6D8"/>
<path d="M910.057 92.6222V137.558H943.039V92.6222H910.057Z" fill="#E2C6D8"/>
<path d="M661.403 507.383L409.685 509.923L411.027 642.425L662.744 639.875L661.403 507.383Z" fill="#E2C6D8"/>
<path d="M432.163 519.485H355.887V630.323H432.163V519.485Z" fill="#E2C6D8"/>
<path d="M414.89 394.725H345.458V555.409H414.89V394.725Z" fill="#E2C6D8"/>
<path d="M401.317 478.199H386.987V493.913H401.317V478.199Z" fill="#E2C6D8"/>
<path d="M337.203 488.547H197.567V606.016H337.203V488.547Z" fill="#E2C6D8"/>
<path d="M184.257 519.866V633.902H211.516V519.866H184.257Z" fill="#E2C6D8"/>
<path d="M777.856 598.613V633.902H2418V598.613H777.856Z" fill="#E2C6D8"/>
<path d="M1117.02 534.7H1160.28V620.474H1117.02V534.7Z" fill="#E2C6D8"/>
<path d="M1597.99 547.86H1644.96V606.534H1597.99V547.86Z" fill="#E2C6D8"/>
<path d="M2012.15 394.725H2071.29V612.154H2012.15V394.725Z" fill="#E2C6D8"/>
<path d="M2108.96 429.845H2163.39V625.479H2108.96V429.845Z" fill="#E2C6D8"/>
<path d="M2198.51 361.237H2275.3V617.53H2198.51V361.237Z" fill="#E2C6D8"/>
<path d="M2287.83 193.099H2416.71V623.917H2287.83V193.099Z" fill="#E2C6D8"/>
<path d="M2304.73 162.612H2399.94V235.97H2304.73V162.612Z" fill="#E2C6D8"/>
<path d="M2317.15 127.798H2387.55V181.961H2317.15V127.798Z" fill="#E2C6D8"/>
<path d="M2355.92 63.5793V154.729H2348.76V63.5793H2355.92Z" fill="#E2C6D8"/>
<path d="M809.854 464.132H918.001V623.917H809.854V464.132Z" fill="#E2C6D8"/>
<path d="M323.889 489.313H367.023V671.863H323.889V489.313Z" fill="#E2C6D8"/>
<path d="M2249.95 511.565H2276.83V656.516H2249.95V511.565Z" fill="#698498"/>
<path d="M795.646 569.584V633.902H818.429V569.584H795.646Z" fill="#B3CFDE"/>
<path d="M302.009 473.98H240.441V496.73H302.009V473.98Z" fill="#B3CFDE"/>
<path d="M289.331 464.908H253.628V478.199H289.331V464.908Z" fill="#B3CFDE"/>
<path d="M1074.66 527.024H1103.84V612.794H1074.66V527.024Z" fill="#B3CFDE"/>
<path d="M1655.71 548.504H1680.03V607.169H1655.71V548.504Z" fill="#E2C6D8"/>
<path d="M1938.56 538.148H2031.35V612.154H1938.56V538.148Z" fill="#E2C6D8"/>
<path d="M2068.09 546.331H2136.17V609.478H2068.09V546.331Z" fill="#E2C6D8"/>
<path d="M0.343567 697.293V769H2418V697.293H0.343567Z" fill="#414042"/>
<path d="M1685.02 556.679C1684 556.679 1683.23 557.826 1683.23 559.237V701.385C1683.23 702.796 1684 703.803 1685.02 703.803H2418.02V556.679H1685.02Z" fill="#C08EAE"/>
<path d="M1188.31 613.316H1188.05V742.29C1188.05 743.565 1188.69 744.59 1189.59 744.59H1685.79V613.316H1188.31Z" fill="#C08EAE"/>
<path d="M1661.99 538.402V667.884H1685.79V538.402H1661.99Z" fill="#C08EAE"/>
<path d="M1673.49 572.914H1650.98V702.415H1673.49V572.914Z" fill="#C08EAE"/>
<path d="M1320.13 538.016H1247.18V667.503H1320.13V538.016Z" fill="#6693AA"/>
<path d="M1428.66 460.407H1330.37V644.621H1428.66V460.407Z" fill="#C08EAE"/>
<path d="M1237.96 539.676V669.172H1188.05V539.676H1237.96Z" fill="#C08EAE"/>
<path d="M1414.71 442.774H1346.23V478.594H1414.71V442.774Z" fill="#C08EAE"/>
<path d="M1400.72 428.584H1361.06V449.321H1400.72V428.584Z" fill="#C08EAE"/>
<path d="M1609 633.371V538.656H1599.66V497.107L1582.76 477.292H1514.93L1515.19 642.062L1609 633.371Z" fill="#C08EAE"/>
<path d="M1505.45 565.761H1475.51V688.08H1505.45V565.761Z" fill="#6693AA"/>
<path d="M1481.52 581.225H1451.7V703.558H1481.52V581.225Z" fill="#C08EAE"/>
<path d="M1458.62 600.664H1428.66V722.983H1458.62V600.664Z" fill="#C08EAE"/>
<path d="M1466.61 547.347H1417.01V669.68H1466.61V547.347Z" fill="#C08EAE"/>
<path d="M46.2867 591.455C45.2607 591.455 44.4983 592.602 44.4983 593.882V736.034C44.4983 737.445 45.2607 738.593 46.2867 738.593H1190.09C1190.99 738.593 1191.76 737.445 1191.76 736.034V591.596C1191.64 591.474 1191.64 591.474 1191.51 591.474L46.2867 591.455Z" fill="#C08EAE"/>
<path d="M44.503 442.083H175.428V738.574H44.503V442.083Z" fill="#C08EAE"/>
<path d="M65.8697 362.954L148.169 398.177V508.296L65.8697 473.068V362.954Z" fill="#C08EAE"/>
<path d="M91.4673 351.365L122.698 364.812V406.681L91.4673 393.243V351.365Z" fill="#C08EAE"/>
<path d="M199.233 376.438H330.167V709.433H199.233V376.438Z" fill="#C08EAE"/>
<path d="M393.387 325.948H534.431V682.596H393.387V325.948Z" fill="#C08EAE"/>
<path d="M425.47 217.072H506.174V441.485H425.47V217.072Z" fill="#C08EAE"/>
<path d="M450.621 193.099H476.957V243.725H450.621V193.099Z" fill="#C08EAE"/>
<path d="M487.203 507.473H625.047V652.556H487.203V507.473Z" fill="#C08EAE"/>
<path d="M521.889 489.445H582.676V517.566H521.889V489.445Z" fill="#C08EAE"/>
<path d="M534.431 478.326H569.625V494.694H534.431V478.326Z" fill="#C08EAE"/>
<path d="M611.219 546.204H638.097V691.287H611.219V546.204Z" fill="#C08EAE"/>
<path d="M1033.83 507.092H1121.11V652.175H1033.83V507.092Z" fill="#C08EAE"/>
<path d="M946.375 481.52H1033.65V626.603H946.375V481.52Z" fill="#C08EAE"/>
<path d="M1079.14 317.525V699.076H1198.16V317.525H1079.14Z" fill="#C08EAE"/>
<path d="M635.801 608.561V441.222H648.842V367.916L672.105 332.872H766.025L765.582 623.649L635.801 608.561Z" fill="#C08EAE"/>
<path d="M789.885 493.913H825.597V662.517H789.885V493.913Z" fill="#C08EAE"/>
<path d="M818.298 542.747H854.136V679.774H818.298V542.747Z" fill="#C08EAE"/>
<path d="M845.815 564.618H881.654V701.503H845.815V564.618Z" fill="#C08EAE"/>
<path d="M897.924 517.693H934.266V654.597H897.924V517.693Z" fill="#C08EAE"/>
<path d="M25.1741 562.939V702.904H47.4397V562.939H25.1741Z" fill="#C08EAE"/>
<path d="M1683.23 481.134H1814.16V703.803H1683.23V481.134Z" fill="#C08EAE"/>
<path d="M1704.6 421.698L1787.02 448.286V530.989L1704.6 504.401V421.698Z" fill="#C08EAE"/>
<path d="M1730.2 413.129L1761.43 423.232V454.546L1730.2 444.58V413.129Z" fill="#C08EAE"/>
<path d="M1837.97 386.156H1968.89V674.793H1837.97V386.156Z" fill="#C08EAE"/>
<path d="M1962.62 454.678H2005.75V637.086H1962.62V454.678Z" fill="#C08EAE"/>
<path d="M2032.12 473.303H2120.09V647.956H2032.12V473.303Z" fill="#C08EAE"/>
<path d="M2052.13 420.208H2102.48V530.011H2052.13V420.208Z" fill="#C08EAE"/>
<path d="M2067.82 408.318H2084.24V433.245H2067.82V408.318Z" fill="#C08EAE"/>
<path d="M2125.93 472.823H2263.78V617.911H2125.93V472.823Z" fill="#C08EAE"/>
<path d="M2160.62 454.678H2221.41V482.926H2160.62V454.678Z" fill="#C08EAE"/>
<path d="M2173.16 443.691H2208.36V459.918H2173.16V443.691Z" fill="#C08EAE"/>
<path d="M0.343567 585.947V708.158H32.3371V585.947H0.343567Z" fill="#C08EAE"/>
<path d="M2285.53 579.301V473.087H2296.79V426.566L2316.89 404.437H2398.03L2397.65 589.018L2285.53 579.301Z" fill="#C08EAE"/>
<path d="M769.281 711.987V769H792.065V711.987H769.281Z" fill="#96A36F"/>
<path d="M397.43 447.769H376.727V481.915H397.43V447.769Z" fill="#96A36F"/>
<path d="M2041.72 612.154H2109.8V747.393H2041.72V612.154Z" fill="#96A36F"/>
<path d="M2092.41 639.382H2178.53V747.393H2092.41V639.382Z" fill="#96A36F"/>
<path d="M1195.49 645.642H1253.83V755.064H1195.49V645.642Z" fill="#96A36F"/>
<path d="M0.343597 700.487V769H759.294V702.269C759.299 702.033 759.256 701.799 759.167 701.58C759.078 701.361 758.946 701.162 758.779 700.996C758.611 700.829 758.412 700.698 758.192 700.611C757.973 700.523 757.738 700.481 757.501 700.487H0.343597Z" fill="#96A36F"/>
<path d="M756.744 687.313V769H780.934V687.313H756.744Z" fill="#96A36F"/>
<path d="M648.084 473.98V718.764H780.671V473.98H648.084Z" fill="#96A36F"/>
<path d="M469.922 387.19V769H602.513V387.19H469.922Z" fill="#96A36F"/>
<path d="M476.322 580.482H432.549V754.547H476.322V580.482Z" fill="#96A36F"/>
<path d="M441.557 534.333H330.426V766.347H441.557V534.333Z" fill="#96A36F"/>
<path d="M417.375 464.235H353.609V613.744H417.375V464.235Z" fill="#96A36F"/>
<path d="M305.252 477.696H165.62V744.341H305.252V477.696Z" fill="#96A36F"/>
<path d="M266.218 444.279H204.659V496.067H266.218V444.279Z" fill="#96A36F"/>
<path d="M253.294 423.904H217.583V453.761H253.294V423.904Z" fill="#96A36F"/>
<path d="M133.678 587.692V769H183.104V587.692H133.678Z" fill="#96A36F"/>
<path d="M149.19 709.545V554.134H134.285V486.087L107.502 453.761H0L0.503577 723.618L149.19 709.545Z" fill="#96A36F"/>
<path d="M751.491 737.817V769H2418V737.817H751.491Z" fill="#96A36F"/>
<path d="M1100.72 414.902H1263.55V757.5H1100.72V414.902Z" fill="#96A36F"/>
<path d="M1062.8 681.439H1138.65V757.373H1062.8V681.439Z" fill="#96A36F"/>
<path d="M1133.49 372.737H1214.31V477.908H1133.49V372.737Z" fill="#96A36F"/>
<path d="M1048.29 674.417H1077.47V750.337H1048.29V674.417Z" fill="#96A36F"/>
<path d="M1251.24 494.082H1382.16V756.988H1251.24V494.082Z" fill="#96A36F"/>
<path d="M1956.59 431.185H1791.22V744.2H1956.59V431.185Z" fill="#96A36F"/>
<path d="M1473.84 435.996H1583.4V755.327H1473.84V435.996Z" fill="#96A36F"/>
<path d="M1499.18 425.743H1558.06V444.11H1499.18V425.743Z" fill="#96A36F"/>
<path d="M1495.22 408.318H1562.02V429.116H1495.22V408.318Z" fill="#96A36F"/>
<path d="M1532.21 332.872V412.598H1525.04V332.872H1532.21Z" fill="#96A36F"/>
<path d="M1505.45 393.93H1551.78V414.738H1505.45V393.93Z" fill="#96A36F"/>
<path d="M1571.62 692.816H1618.6V744.717H1571.62V692.816Z" fill="#96A36F"/>
<path d="M1521.58 633.507H1718.15V753.794H1521.58V633.507Z" fill="#96A36F"/>
<path d="M1561.52 547.832H1628.71V726.341H1561.52V547.832Z" fill="#96A36F"/>
<path d="M1611.36 488.843H1678.55V667.352H1611.36V488.843Z" fill="#96A36F"/>
<path d="M1662.24 565.342H1729.43V743.847H1662.24V565.342Z" fill="#96A36F"/>
<path d="M1369.73 567.261H1436.92V745.77H1369.73V567.261Z" fill="#96A36F"/>
<path d="M1418.1 637.086H1485.29V737.206H1418.1V637.086Z" fill="#96A36F"/>
<path d="M1710.74 538.148H1809.17V707.01H1710.74V538.148Z" fill="#96A36F"/>
<path d="M1935.76 555.931H1994.89V748.428H1935.76V555.931Z" fill="#96A36F"/>
<path d="M1983.67 506.386H2042.8V698.888H1983.67V506.386Z" fill="#96A36F"/>
<path d="M1799.95 677.224H1903.42V748.169H1799.95V677.224Z" fill="#96A36F"/>
<path d="M2172.14 527.664H2270.25V754.566H2172.14V527.664Z" fill="#96A36F"/>
<path d="M1732.12 517.19H1787.79V612.672H1732.12V517.19Z" fill="#96A36F"/>
<path d="M2266.51 445.093H2395.39V760.177H2266.51V445.093Z" fill="#96A36F"/>
<path d="M2283.34 422.846H2378.57V476.525H2283.34V422.846Z" fill="#96A36F"/>
<path d="M756.744 618.668H844.281V760.177H756.744V618.668Z" fill="#96A36F"/>
<path d="M810.363 674.765H1147.87V760.177H810.363V674.765Z" fill="#96A36F"/>
<path d="M983.97 744.59H825.597V645.646H983.97V744.59Z" fill="#96A36F"/>
<path d="M2418 769H0.343567V694.824H2418V769Z" fill="#96A36F"/>
<path d="M928.953 531.37H1079.24V747.393H928.953V531.37Z" fill="#96A36F"/>
<path d="M220.548 255.944H202.137V237.545H220.548V255.944Z" fill="white"/>
<path d="M247.618 255.944H229.207V237.545H247.618V255.944Z" fill="white"/>
<path d="M274.689 255.944H256.278V237.545H274.689V255.944Z" fill="white"/>
<path d="M301.765 255.944H283.354V237.545H301.765V255.944Z" fill="white"/>
<path d="M36.3187 499.675H17.9076V481.271H36.3187V499.675Z" fill="white"/>
<path d="M63.3895 499.675H44.9783V481.271H63.3895V499.675Z" fill="white"/>
<path d="M90.4649 499.675H72.0538V481.271H90.4649V499.675Z" fill="white"/>
<path d="M117.536 499.675H99.1246V481.271H117.536V499.675Z" fill="white"/>
<path d="M36.3187 535.509H17.9076V517.11H36.3187V535.509Z" fill="white"/>
<path d="M63.3895 535.509H44.9783V517.11H63.3895V535.509Z" fill="white"/>
<path d="M90.4649 535.509H72.0538V517.11H90.4649V535.509Z" fill="white"/>
<path d="M117.536 535.509H99.1246V517.11H117.536V535.509Z" fill="white"/>
<path d="M36.3187 571.343H17.9076V552.939H36.3187V571.343Z" fill="white"/>
<path d="M63.3895 571.343H44.9783V552.939H63.3895V571.343Z" fill="white"/>
<path d="M90.4649 571.343H72.0538V552.939H90.4649V571.343Z" fill="white"/>
<path d="M117.536 571.343H99.1246V552.939H117.536V571.343Z" fill="white"/>
<path d="M36.3187 607.178H17.9076V588.779H36.3187V607.178Z" fill="white"/>
<path d="M63.3895 607.178H44.9783V588.779H63.3895V607.178Z" fill="white"/>
<path d="M90.4649 607.178H72.0538V588.779H90.4649V607.178Z" fill="white"/>
<path d="M117.536 607.178H99.1246V588.779H117.536V607.178Z" fill="white"/>
<path d="M36.3187 643.003H17.9076V624.604H36.3187V643.003Z" fill="white"/>
<path d="M63.3895 643.003H44.9783V624.604H63.3895V643.003Z" fill="white"/>
<path d="M90.4649 643.003H72.0538V624.604H90.4649V643.003Z" fill="white"/>
<path d="M117.536 643.003H99.1246V624.604H117.536V643.003Z" fill="white"/>
<path d="M36.3187 678.842H17.9076V660.438H36.3187V678.842Z" fill="white"/>
<path d="M63.3895 678.842H44.9783V660.438H63.3895V678.842Z" fill="white"/>
<path d="M90.4649 678.842H72.0538V660.438H90.4649V678.842Z" fill="white"/>
<path d="M117.536 678.842H99.1246V660.438H117.536V678.842Z" fill="white"/>
<path d="M36.3187 714.672H17.9076V696.273H36.3187V714.672Z" fill="white"/>
<path d="M63.3895 714.672H44.9783V696.273H63.3895V714.672Z" fill="white"/>
<path d="M90.4649 714.672H72.0538V696.273H90.4649V714.672Z" fill="white"/>
<path d="M117.536 714.672H99.1246V696.273H117.536V714.672Z" fill="white"/>
<path d="M204.033 518.271H185.622V499.872H204.033V518.271Z" fill="white"/>
<path d="M231.104 518.271H212.693V499.872H231.104V518.271Z" fill="white"/>
<path d="M258.179 518.271H239.768V499.872H258.179V518.271Z" fill="white"/>
<path d="M285.25 518.271H266.839V499.872H285.25V518.271Z" fill="white"/>
<path d="M204.033 558.405H185.622V540.005H204.033V558.405Z" fill="white"/>
<path d="M231.104 558.405H212.693V540.005H231.104V558.405Z" fill="white"/>
<path d="M258.179 558.405H239.768V540.005H258.179V558.405Z" fill="white"/>
<path d="M285.25 558.405H266.839V540.005H285.25V558.405Z" fill="white"/>
<path d="M204.033 594.324H185.622V575.92H204.033V594.324Z" fill="white"/>
<path d="M231.104 594.324H212.693V575.92H231.104V594.324Z" fill="white"/>
<path d="M258.179 594.324H239.768V575.92H258.179V594.324Z" fill="white"/>
<path d="M285.25 594.324H266.839V575.92H285.25V594.324Z" fill="white"/>
<path d="M204.033 629.989H185.622V611.59H204.033V629.989Z" fill="white"/>
<path d="M231.104 629.989H212.693V611.59H231.104V629.989Z" fill="white"/>
<path d="M258.179 629.989H239.768V611.59H258.179V629.989Z" fill="white"/>
<path d="M285.25 629.989H266.839V611.59H285.25V629.989Z" fill="white"/>
<path d="M204.033 674.214H185.622V655.815H204.033V674.214Z" fill="white"/>
<path d="M231.104 674.214H212.693V655.815H231.104V674.214Z" fill="white"/>
<path d="M258.179 674.214H239.768V655.815H258.179V674.214Z" fill="white"/>
<path d="M285.25 674.214H266.839V655.815H285.25V674.214Z" fill="white"/>
<path d="M204.033 713.007H185.622V694.603H204.033V713.007Z" fill="white"/>
<path d="M231.104 713.007H212.693V694.603H231.104V713.007Z" fill="white"/>
<path d="M258.179 713.007H239.768V694.603H258.179V713.007Z" fill="white"/>
<path d="M285.25 713.007H266.839V694.603H285.25V713.007Z" fill="white"/>
<path d="M504.814 438.696H486.403V420.287H504.814V438.696Z" fill="white"/>
<path d="M531.89 438.696H513.474V420.287H531.89V438.696Z" fill="white"/>
<path d="M558.96 438.696H540.549V420.287H558.96V438.696Z" fill="white"/>
<path d="M586.031 438.696H567.62V420.287H586.031V438.696Z" fill="white"/>
<path d="M504.814 478.825H486.403V460.421H504.814V478.825Z" fill="white"/>
<path d="M531.89 478.825H513.474V460.421H531.89V478.825Z" fill="white"/>
<path d="M558.96 478.825H540.549V460.421H558.96V478.825Z" fill="white"/>
<path d="M586.031 478.825H567.62V460.421H586.031V478.825Z" fill="white"/>
<path d="M351.986 564.862H333.579V546.458H351.986V564.862Z" fill="white"/>
<path d="M379.057 564.862H360.65V546.458H379.057V564.862Z" fill="white"/>
<path d="M406.137 564.862H387.721V546.458H406.137V564.862Z" fill="white"/>
<path d="M433.208 564.862H414.792V546.458H433.208V564.862Z" fill="white"/>
<path d="M427.315 353.755H408.904V335.355H427.315V353.755Z" fill="white"/>
<path d="M454.386 353.755H435.98V335.355H454.386V353.755Z" fill="white"/>
<path d="M481.466 353.755H463.046V335.355H481.466V353.755Z" fill="white"/>
<path d="M508.532 353.755H490.121V335.355H508.532V353.755Z" fill="white"/>
<path d="M675.564 385.074H657.158V366.674H675.564V385.074Z" fill="white"/>
<path d="M702.64 385.074H684.229V366.674H702.64V385.074Z" fill="white"/>
<path d="M729.715 385.074H711.299V366.674H729.715V385.074Z" fill="white"/>
<path d="M756.786 385.074H738.375V366.674H756.786V385.074Z" fill="white"/>
<path d="M1105.95 353.755H1087.55V335.355H1105.95V353.755Z" fill="white"/>
<path d="M1133.03 353.755H1114.62V335.355H1133.03V353.755Z" fill="white"/>
<path d="M1160.1 353.755H1141.69V335.355H1160.1V353.755Z" fill="white"/>
<path d="M1187.17 353.755H1168.76V335.355H1187.17V353.755Z" fill="white"/>
<path d="M1105.95 411.243H1087.55V392.844H1105.95V411.243Z" fill="white"/>
<path d="M1133.03 411.243H1114.62V392.844H1133.03V411.243Z" fill="white"/>
<path d="M1105.95 380.131H1087.55V361.727H1105.95V380.131Z" fill="white"/>
<path d="M1133.03 380.131H1114.62V361.727H1133.03V380.131Z" fill="white"/>
<path d="M675.564 417.517H657.158V399.118H675.564V417.517Z" fill="white"/>
<path d="M702.64 417.517H684.229V399.118H702.64V417.517Z" fill="white"/>
<path d="M729.715 417.517H711.299V399.118H729.715V417.517Z" fill="white"/>
<path d="M756.786 417.517H738.375V399.118H756.786V417.517Z" fill="white"/>
<path d="M675.564 453.474H657.158V435.075H675.564V453.474Z" fill="white"/>
<path d="M702.64 453.474H684.229V435.075H702.64V453.474Z" fill="white"/>
<path d="M729.715 453.474H711.299V435.075H729.715V453.474Z" fill="white"/>
<path d="M756.786 453.474H738.375V435.075H756.786V453.474Z" fill="white"/>
<path d="M427.315 383.87H408.904V365.47H427.315V383.87Z" fill="white"/>
<path d="M454.386 383.87H435.98V365.47H454.386V383.87Z" fill="white"/>
<path d="M481.466 383.87H463.046V365.47H481.466V383.87Z" fill="white"/>
<path d="M508.532 383.87H490.121V365.47H508.532V383.87Z" fill="white"/>
<path d="M427.315 413.985H408.904V395.586H427.315V413.985Z" fill="white"/>
<path d="M454.386 413.985H435.98V395.586H454.386V413.985Z" fill="white"/>
<path d="M351.986 598.303H333.579V579.899H351.986V598.303Z" fill="white"/>
<path d="M379.057 598.303H360.65V579.899H379.057V598.303Z" fill="white"/>
<path d="M406.137 598.303H387.721V579.899H406.137V598.303Z" fill="white"/>
<path d="M433.208 598.303H414.792V579.899H433.208V598.303Z" fill="white"/>
<path d="M351.986 631.739H333.579V613.339H351.986V631.739Z" fill="white"/>
<path d="M379.057 631.739H360.65V613.339H379.057V631.739Z" fill="white"/>
<path d="M406.137 631.739H387.721V613.339H406.137V631.739Z" fill="white"/>
<path d="M433.208 631.739H414.792V613.339H433.208V631.739Z" fill="white"/>
<path d="M351.986 665.179H333.579V646.78H351.986V665.179Z" fill="white"/>
<path d="M379.057 665.179H360.65V646.78H379.057V665.179Z" fill="white"/>
<path d="M406.137 665.179H387.721V646.78H406.137V665.179Z" fill="white"/>
<path d="M433.208 665.179H414.792V646.78H433.208V665.179Z" fill="white"/>
<path d="M351.986 698.62H333.579V680.216H351.986V698.62Z" fill="white"/>
<path d="M379.057 698.62H360.65V680.216H379.057V698.62Z" fill="white"/>
<path d="M406.137 698.62H387.721V680.216H406.137V698.62Z" fill="white"/>
<path d="M433.208 698.62H414.792V680.216H433.208V698.62Z" fill="white"/>
<path d="M504.814 514.744H486.403V496.34H504.814V514.744Z" fill="white"/>
<path d="M531.89 514.744H513.474V496.34H531.89V514.744Z" fill="white"/>
<path d="M558.96 514.744H540.549V496.34H558.96V514.744Z" fill="white"/>
<path d="M586.031 514.744H567.62V496.34H586.031V514.744Z" fill="white"/>
<path d="M504.814 550.414H486.403V532.01H504.814V550.414Z" fill="white"/>
<path d="M531.89 550.414H513.474V532.01H531.89V550.414Z" fill="white"/>
<path d="M558.96 550.414H540.549V532.01H558.96V550.414Z" fill="white"/>
<path d="M586.031 550.414H567.62V532.01H586.031V550.414Z" fill="white"/>
<path d="M681.532 513.023H663.121V494.619H681.532V513.023Z" fill="white"/>
<path d="M708.603 513.023H690.192V494.619H708.603V513.023Z" fill="white"/>
<path d="M735.678 513.023H717.267V494.619H735.678V513.023Z" fill="white"/>
<path d="M762.749 513.023H744.338V494.619H762.749V513.023Z" fill="white"/>
<path d="M681.532 553.156H663.121V534.752H681.532V553.156Z" fill="white"/>
<path d="M708.603 553.156H690.192V534.752H708.603V553.156Z" fill="white"/>
<path d="M735.678 553.156H717.267V534.752H735.678V553.156Z" fill="white"/>
<path d="M762.749 553.156H744.338V534.752H762.749V553.156Z" fill="white"/>
<path d="M681.532 589.07H663.121V570.671H681.532V589.07Z" fill="white"/>
<path d="M708.603 589.07H690.192V570.671H708.603V589.07Z" fill="white"/>
<path d="M735.678 589.07H717.267V570.671H735.678V589.07Z" fill="white"/>
<path d="M762.749 589.07H744.338V570.671H762.749V589.07Z" fill="white"/>
<path d="M969.328 576.569H950.917V558.17H969.328V576.569Z" fill="white"/>
<path d="M996.399 576.569H977.988V558.17H996.399V576.569Z" fill="white"/>
<path d="M1023.47 576.569H1005.06V558.17H1023.47V576.569Z" fill="white"/>
<path d="M1050.55 576.569H1032.13V558.17H1050.55V576.569Z" fill="white"/>
<path d="M969.328 612.723H950.917V594.324H969.328V612.723Z" fill="white"/>
<path d="M996.399 612.723H977.988V594.324H996.399V612.723Z" fill="white"/>
<path d="M1023.47 612.723H1005.06V594.324H1023.47V612.723Z" fill="white"/>
<path d="M1050.55 612.723H1032.13V594.324H1050.55V612.723Z" fill="white"/>
<path d="M969.328 648.878H950.917V630.478H969.328V648.878Z" fill="white"/>
<path d="M996.399 648.878H977.988V630.478H996.399V648.878Z" fill="white"/>
<path d="M1023.47 648.878H1005.06V630.478H1023.47V648.878Z" fill="white"/>
<path d="M1050.55 648.878H1032.13V630.478H1050.55V648.878Z" fill="white"/>
<path d="M1152.71 447.026H1134.29V428.622H1152.71V447.026Z" fill="white"/>
<path d="M1179.78 447.026H1161.36V428.622H1179.78V447.026Z" fill="white"/>
<path d="M1206.85 447.026H1188.44V428.622H1206.85V447.026Z" fill="white"/>
<path d="M1233.93 447.026H1215.51V428.622H1233.93V447.026Z" fill="white"/>
<path d="M1152.71 483.42H1134.29V465.016H1152.71V483.42Z" fill="white"/>
<path d="M1179.78 483.42H1161.36V465.016H1179.78V483.42Z" fill="white"/>
<path d="M1206.85 483.42H1188.44V465.016H1206.85V483.42Z" fill="white"/>
<path d="M1233.93 483.42H1215.51V465.016H1233.93V483.42Z" fill="white"/>
<path d="M1152.71 519.809H1134.29V501.41H1152.71V519.809Z" fill="white"/>
<path d="M1179.78 519.809H1161.36V501.41H1179.78V519.809Z" fill="white"/>
<path d="M1206.85 519.809H1188.44V501.41H1206.85V519.809Z" fill="white"/>
<path d="M1233.93 519.809H1215.51V501.41H1233.93V519.809Z" fill="white"/>
<path d="M1285.29 530.98H1266.89V512.576H1285.29V530.98Z" fill="white"/>
<path d="M1312.36 530.98H1293.95V512.576H1312.36V530.98Z" fill="white"/>
<path d="M1339.44 530.98H1321.03V512.576H1339.44V530.98Z" fill="white"/>
<path d="M1508.31 461.004H1489.91V442.6H1508.31V461.004Z" fill="white"/>
<path d="M1535.39 461.004H1516.97V442.6H1535.39V461.004Z" fill="white"/>
<path d="M1562.47 461.004H1544.05V442.6H1562.47V461.004Z" fill="white"/>
<path d="M1508.31 501.095H1489.91V482.696H1508.31V501.095Z" fill="white"/>
<path d="M1535.39 501.095H1516.97V482.696H1535.39V501.095Z" fill="white"/>
<path d="M1562.47 501.095H1544.05V482.696H1562.47V501.095Z" fill="white"/>
<path d="M1508.31 541.181H1489.91V522.777H1508.31V541.181Z" fill="white"/>
<path d="M1535.39 541.181H1516.97V522.777H1535.39V541.181Z" fill="white"/>
<path d="M1562.47 541.181H1544.05V522.777H1562.47V541.181Z" fill="white"/>
<path d="M1508.31 581.268H1489.91V562.864H1508.31V581.268Z" fill="white"/>
<path d="M1535.39 581.268H1516.97V562.864H1535.39V581.268Z" fill="white"/>
<path d="M1562.47 581.268H1544.05V562.864H1562.47V581.268Z" fill="white"/>
<path d="M1508.31 621.359H1489.91V602.959H1508.31V621.359Z" fill="white"/>
<path d="M1535.39 621.359H1516.97V602.959H1535.39V621.359Z" fill="white"/>
<path d="M1562.47 621.359H1544.05V602.959H1562.47V621.359Z" fill="white"/>
<path d="M1366.51 530.98H1348.1V512.576H1366.51V530.98Z" fill="white"/>
<path d="M1285.29 567.374H1266.89V548.975H1285.29V567.374Z" fill="white"/>
<path d="M1312.36 567.374H1293.95V548.975H1312.36V567.374Z" fill="white"/>
<path d="M1339.44 567.374H1321.03V548.975H1339.44V567.374Z" fill="white"/>
<path d="M1366.51 567.374H1348.1V548.975H1366.51V567.374Z" fill="white"/>
<path d="M1842.5 460.407H1824.09V442.007H1842.5V460.407Z" fill="white"/>
<path d="M1869.57 460.407H1851.16V442.007H1869.57V460.407Z" fill="white"/>
<path d="M1896.65 460.407H1878.24V442.007H1896.65V460.407Z" fill="white"/>
<path d="M2313.09 484.06H2294.68V465.66H2313.09V484.06Z" fill="white"/>
<path d="M2340.15 484.06H2321.74V465.66H2340.15V484.06Z" fill="white"/>
<path d="M2367.23 484.06H2348.82V465.66H2367.23V484.06Z" fill="white"/>
<path d="M2205.02 554.567H2186.61V536.167H2205.02V554.567Z" fill="white"/>
<path d="M2232.1 554.567H2213.68V536.167H2232.1V554.567Z" fill="white"/>
<path d="M2259.17 554.567H2240.76V536.167H2259.17V554.567Z" fill="white"/>
<path d="M2205.02 584.353H2186.61V565.949H2205.02V584.353Z" fill="white"/>
<path d="M2232.1 584.353H2213.68V565.949H2232.1V584.353Z" fill="white"/>
<path d="M2259.17 584.353H2240.76V565.949H2259.17V584.353Z" fill="white"/>
<path d="M2205.02 611.83H2186.61V593.43H2205.02V611.83Z" fill="white"/>
<path d="M2232.1 611.83H2213.68V593.43H2232.1V611.83Z" fill="white"/>
<path d="M2259.17 611.83H2240.76V593.43H2259.17V611.83Z" fill="white"/>
<path d="M2205.02 648.581H2186.61V630.177H2205.02V648.581Z" fill="white"/>
<path d="M2232.1 648.581H2213.68V630.177H2232.1V648.581Z" fill="white"/>
<path d="M2259.17 648.581H2240.76V630.177H2259.17V648.581Z" fill="white"/>
<path d="M2313.09 521.098H2294.68V502.699H2313.09V521.098Z" fill="white"/>
<path d="M2340.15 521.098H2321.74V502.699H2340.15V521.098Z" fill="white"/>
<path d="M2367.23 521.098H2348.82V502.699H2367.23V521.098Z" fill="white"/>
<path d="M2313.09 558.141H2294.68V539.737H2313.09V558.141Z" fill="white"/>
<path d="M2340.15 558.141H2321.74V539.737H2340.15V558.141Z" fill="white"/>
<path d="M2367.23 558.141H2348.82V539.737H2367.23V558.141Z" fill="white"/>
<path d="M2313.09 595.171H2294.68V576.771H2313.09V595.171Z" fill="white"/>
<path d="M2340.15 595.171H2321.74V576.771H2340.15V595.171Z" fill="white"/>
<path d="M2367.23 595.171H2348.82V576.771H2367.23V595.171Z" fill="white"/>
<path d="M2313.09 632.214H2294.68V613.81H2313.09V632.214Z" fill="white"/>
<path d="M2340.15 632.214H2321.74V613.81H2340.15V632.214Z" fill="white"/>
<path d="M2367.23 632.214H2348.82V613.81H2367.23V632.214Z" fill="white"/>
<path d="M2313.09 669.252H2294.68V650.853H2313.09V669.252Z" fill="white"/>
<path d="M2340.15 669.252H2321.74V650.853H2340.15V669.252Z" fill="white"/>
<path d="M2367.23 669.252H2348.82V650.853H2367.23V669.252Z" fill="white"/>
<path d="M2313.09 706.291H2294.68V687.891H2313.09V706.291Z" fill="white"/>
<path d="M2340.15 706.291H2321.74V687.891H2340.15V706.291Z" fill="white"/>
<path d="M2367.23 706.291H2348.82V687.891H2367.23V706.291Z" fill="white"/>
<path d="M2008.9 530.989H1990.49V512.585H2008.9V530.989Z" fill="white"/>
<path d="M2035.98 530.989H2017.57V512.585H2035.98V530.989Z" fill="white"/>
<path d="M2008.9 559.138H1990.49V540.739H2008.9V559.138Z" fill="white"/>
<path d="M2035.98 559.138H2017.57V540.739H2035.98V559.138Z" fill="white"/>
<path d="M2008.9 587.297H1990.49V568.898H2008.9V587.297Z" fill="white"/>
<path d="M2035.98 587.297H2017.57V568.898H2035.98V587.297Z" fill="white"/>
<path d="M1923.72 460.407H1905.3V442.007H1923.72V460.407Z" fill="white"/>
<path d="M1842.5 493.353H1824.09V474.954H1842.5V493.353Z" fill="white"/>
<path d="M1869.57 493.353H1851.16V474.954H1869.57V493.353Z" fill="white"/>
<path d="M1896.65 493.353H1878.24V474.954H1896.65V493.353Z" fill="white"/>
<path d="M1923.72 493.353H1905.3V474.954H1923.72V493.353Z" fill="white"/>
<path d="M1842.5 526.305H1824.09V507.901H1842.5V526.305Z" fill="white"/>
<path d="M1869.57 526.305H1851.16V507.901H1869.57V526.305Z" fill="white"/>
<path d="M1896.65 526.305H1878.24V507.901H1896.65V526.305Z" fill="white"/>
<path d="M1923.72 526.305H1905.3V507.901H1923.72V526.305Z" fill="white"/>
<path d="M1842.5 559.251H1824.09V540.852H1842.5V559.251Z" fill="white"/>
<path d="M1869.57 559.251H1851.16V540.852H1869.57V559.251Z" fill="white"/>
<path d="M1896.65 559.251H1878.24V540.852H1896.65V559.251Z" fill="white"/>
<path d="M1923.72 559.251H1905.3V540.852H1923.72V559.251Z" fill="white"/>
<path d="M1842.5 592.193H1824.09V573.789H1842.5V592.193Z" fill="white"/>
<path d="M1869.57 592.193H1851.16V573.789H1869.57V592.193Z" fill="white"/>
<path d="M1896.65 592.193H1878.24V573.789H1896.65V592.193Z" fill="white"/>
<path d="M1923.72 592.193H1905.3V573.789H1923.72V592.193Z" fill="white"/>
<path d="M1842.5 625.14H1824.09V606.741H1842.5V625.14Z" fill="white"/>
<path d="M1869.57 625.14H1851.16V606.741H1869.57V625.14Z" fill="white"/>
<path d="M1896.65 625.14H1878.24V606.741H1896.65V625.14Z" fill="white"/>
<path d="M1923.72 625.14H1905.3V606.741H1923.72V625.14Z" fill="white"/>
<path d="M1842.5 658.087H1824.09V639.687H1842.5V658.087Z" fill="white"/>
<path d="M1869.57 658.087H1851.16V639.687H1869.57V658.087Z" fill="white"/>
<path d="M1896.65 658.087H1878.24V639.687H1896.65V658.087Z" fill="white"/>
<path d="M1923.72 658.087H1905.3V639.687H1923.72V658.087Z" fill="white"/>
<path d="M1842.5 691.038H1824.09V672.634H1842.5V691.038Z" fill="white"/>
<path d="M1869.57 691.038H1851.16V672.634H1869.57V691.038Z" fill="white"/>
<path d="M1896.65 691.038H1878.24V672.634H1896.65V691.038Z" fill="white"/>
<path d="M1923.72 691.038H1905.3V672.634H1923.72V691.038Z" fill="white"/>
<path d="M1285.29 603.768H1266.89V585.364H1285.29V603.768Z" fill="white"/>
<path d="M1312.36 603.768H1293.95V585.364H1312.36V603.768Z" fill="white"/>
<path d="M1339.44 603.768H1321.03V585.364H1339.44V603.768Z" fill="white"/>
<path d="M1366.51 603.768H1348.1V585.364H1366.51V603.768Z" fill="white"/>
<path d="M1285.29 637.82H1266.89V619.416H1285.29V637.82Z" fill="white"/>
<path d="M1312.36 637.82H1293.95V619.416H1312.36V637.82Z" fill="white"/>
<path d="M1339.44 637.82H1321.03V619.416H1339.44V637.82Z" fill="white"/>
<path d="M1366.51 637.82H1348.1V619.416H1366.51V637.82Z" fill="white"/>
<path d="M1285.29 674.214H1266.89V655.815H1285.29V674.214Z" fill="white"/>
<path d="M1312.36 674.214H1293.95V655.815H1312.36V674.214Z" fill="white"/>
<path d="M1339.44 674.214H1321.03V655.815H1339.44V674.214Z" fill="white"/>
<path d="M1366.51 674.214H1348.1V655.815H1366.51V674.214Z" fill="white"/>
<path d="M1285.29 710.608H1266.89V692.204H1285.29V710.608Z" fill="white"/>
<path d="M1312.36 710.608H1293.95V692.204H1312.36V710.608Z" fill="white"/>
<path d="M1339.44 710.608H1321.03V692.204H1339.44V710.608Z" fill="white"/>
<path d="M1366.51 710.608H1348.1V692.204H1366.51V710.608Z" fill="white"/>
<path d="M1152.71 556.208H1134.29V537.804H1152.71V556.208Z" fill="white"/>
<path d="M1179.78 556.208H1161.36V537.804H1179.78V556.208Z" fill="white"/>
<path d="M1206.85 556.208H1188.44V537.804H1206.85V556.208Z" fill="white"/>
<path d="M1233.93 556.208H1215.51V537.804H1233.93V556.208Z" fill="white"/>
<path d="M1152.71 592.593H1134.29V574.194H1152.71V592.593Z" fill="white"/>
<path d="M1179.78 592.593H1161.36V574.194H1179.78V592.593Z" fill="white"/>
<path d="M1206.85 592.593H1188.44V574.194H1206.85V592.593Z" fill="white"/>
<path d="M1233.93 592.593H1215.51V574.194H1233.93V592.593Z" fill="white"/>
<path d="M1152.71 628.992H1134.29V610.588H1152.71V628.992Z" fill="white"/>
<path d="M1179.78 628.992H1161.36V610.588H1179.78V628.992Z" fill="white"/>
<path d="M1206.85 628.992H1188.44V610.588H1206.85V628.992Z" fill="white"/>
<path d="M1233.93 628.992H1215.51V610.588H1233.93V628.992Z" fill="white"/>
<path d="M1152.71 665.386H1134.29V646.987H1152.71V665.386Z" fill="white"/>
<path d="M1179.78 665.386H1161.36V646.987H1179.78V665.386Z" fill="white"/>
<path d="M1206.85 665.386H1188.44V646.987H1206.85V665.386Z" fill="white"/>
<path d="M1233.93 665.386H1215.51V646.987H1233.93V665.386Z" fill="white"/>
<path d="M1152.71 701.78H1134.29V683.376H1152.71V701.78Z" fill="white"/>
<path d="M1179.78 701.78H1161.36V683.376H1179.78V701.78Z" fill="white"/>
<path d="M1206.85 701.78H1188.44V683.376H1206.85V701.78Z" fill="white"/>
<path d="M1233.93 701.78H1215.51V683.376H1233.93V701.78Z" fill="white"/>
<path d="M1152.71 738.174H1134.29V719.77H1152.71V738.174Z" fill="white"/>
<path d="M1179.78 738.174H1161.36V719.77H1179.78V738.174Z" fill="white"/>
<path d="M1206.85 738.174H1188.44V719.77H1206.85V738.174Z" fill="white"/>
<path d="M1233.93 738.174H1215.51V719.77H1233.93V738.174Z" fill="white"/>
<path d="M969.328 685.037H950.917V666.633H969.328V685.037Z" fill="white"/>
<path d="M996.399 685.037H977.988V666.633H996.399V685.037Z" fill="white"/>
<path d="M1023.47 685.037H1005.06V666.633H1023.47V685.037Z" fill="white"/>
<path d="M1050.55 685.037H1032.13V666.633H1050.55V685.037Z" fill="white"/>
<path d="M969.328 721.191H950.917V702.787H969.328V721.191Z" fill="white"/>
<path d="M996.399 721.191H977.988V702.787H996.399V721.191Z" fill="white"/>
<path d="M1023.47 721.191H1005.06V702.787H1023.47V721.191Z" fill="white"/>
<path d="M1050.55 721.191H1032.13V702.787H1050.55V721.191Z" fill="white"/>
<path d="M681.532 624.74H663.121V606.336H681.532V624.74Z" fill="white"/>
<path d="M708.603 624.74H690.192V606.336H708.603V624.74Z" fill="white"/>
<path d="M735.678 624.74H717.267V606.336H735.678V624.74Z" fill="white"/>
<path d="M762.749 624.74H744.338V606.336H762.749V624.74Z" fill="white"/>
<path d="M681.532 660.537H663.121V642.138H681.532V660.537Z" fill="white"/>
<path d="M708.603 660.537H690.192V642.138H708.603V660.537Z" fill="white"/>
<path d="M735.678 660.537H717.267V642.138H735.678V660.537Z" fill="white"/>
<path d="M762.749 660.537H744.338V642.138H762.749V660.537Z" fill="white"/>
<path d="M681.532 696.207H663.121V677.808H681.532V696.207Z" fill="white"/>
<path d="M708.603 696.207H690.192V677.808H708.603V696.207Z" fill="white"/>
<path d="M735.678 696.207H717.267V677.808H735.678V696.207Z" fill="white"/>
<path d="M762.749 696.207H744.338V677.808H762.749V696.207Z" fill="white"/>
<path d="M503.03 583.662H484.615V565.262H503.03V583.662Z" fill="white"/>
<path d="M530.097 583.662H511.69V565.262H530.097V583.662Z" fill="white"/>
<path d="M557.177 583.662H538.761V565.262H557.177V583.662Z" fill="white"/>
<path d="M584.248 583.662H565.832V565.262H584.248V583.662Z" fill="white"/>
<path d="M503.03 623.795H484.615V605.396H503.03V623.795Z" fill="white"/>
<path d="M530.097 623.795H511.69V605.396H530.097V623.795Z" fill="white"/>
<path d="M557.177 623.795H538.761V605.396H557.177V623.795Z" fill="white"/>
<path d="M584.248 623.795H565.832V605.396H584.248V623.795Z" fill="white"/>
<path d="M503.03 659.709H484.615V641.31H503.03V659.709Z" fill="white"/>
<path d="M530.097 659.709H511.69V641.31H530.097V659.709Z" fill="white"/>
<path d="M557.177 659.709H538.761V641.31H557.177V659.709Z" fill="white"/>
<path d="M584.248 659.709H565.832V641.31H584.248V659.709Z" fill="white"/>
<path d="M503.03 695.379H484.615V676.975H503.03V695.379Z" fill="white"/>
<path d="M530.097 695.379H511.69V676.975H530.097V695.379Z" fill="white"/>
<path d="M557.177 695.379H538.761V676.975H557.177V695.379Z" fill="white"/>
<path d="M584.248 695.379H565.832V676.975H584.248V695.379Z" fill="white"/>
<path d="M220.548 283.694H202.137V265.295H220.548V283.694Z" fill="white"/>
<path d="M247.618 283.694H229.207V265.295H247.618V283.694Z" fill="white"/>
<path d="M274.689 283.694H256.278V265.295H274.689V283.694Z" fill="white"/>
<path d="M301.765 283.694H283.354V265.295H301.765V283.694Z" fill="white"/>
<path d="M220.548 308.419H202.137V290.02H220.548V308.419Z" fill="white"/>
<path d="M247.618 308.419H229.207V290.02H247.618V308.419Z" fill="white"/>
<path d="M274.689 308.419H256.278V290.02H274.689V308.419Z" fill="white"/>
<path d="M301.765 308.419H283.354V290.02H301.765V308.419Z" fill="white"/>
<path d="M220.548 335.143H202.137V316.744H220.548V335.143Z" fill="white"/>
<path d="M247.618 335.143H229.207V316.744H247.618V335.143Z" fill="white"/>
<path d="M274.689 335.143H256.278V316.744H274.689V335.143Z" fill="white"/>
<path d="M301.765 335.143H283.354V316.744H301.765V335.143Z" fill="white"/>
<path d="M220.548 362.954H202.137V344.555H220.548V362.954Z" fill="white"/>
<path d="M247.618 362.954H229.207V344.555H247.618V362.954Z" fill="white"/>
<path d="M274.689 362.954H256.278V344.555H274.689V362.954Z" fill="white"/>
<path d="M301.765 362.954H283.354V344.555H301.765V362.954Z" fill="white"/>
<path d="M976.444 333.29H958.033V314.891H976.444V333.29Z" fill="white"/>
<path d="M976.444 361.101H958.033V342.702H976.444V361.101Z" fill="white"/>
<path d="M863.742 254.914H845.331V236.515H863.742V254.914Z" fill="white"/>
<path d="M890.817 254.914H872.401V236.515H890.817V254.914Z" fill="white"/>
<path d="M917.888 254.914H899.477V236.515H917.888V254.914Z" fill="white"/>
<path d="M944.959 254.914H926.548V236.515H944.959V254.914Z" fill="white"/>
<path d="M976.444 254.914H958.033V236.515H976.444V254.914Z" fill="white"/>
<path d="M1002.37 256.062H983.955V237.667H1002.37V256.062Z" fill="white"/>
<path d="M2325.75 232.198H2308.05V214.518H2325.75V232.198Z" fill="white"/>
<path d="M2351.76 232.198H2334.06V214.518H2351.76V232.198Z" fill="white"/>
<path d="M2377.78 232.198H2360.08V214.518H2377.78V232.198Z" fill="white"/>
<path d="M2403.8 232.198H2386.11V214.518H2403.8V232.198Z" fill="white"/>
<path d="M2325.75 268.262H2308.05V250.583H2325.75V268.262Z" fill="white"/>
<path d="M2351.76 268.262H2334.06V250.583H2351.76V268.262Z" fill="white"/>
<path d="M2377.78 268.262H2360.08V250.583H2377.78V268.262Z" fill="white"/>
<path d="M2403.8 268.262H2386.11V250.583H2403.8V268.262Z" fill="white"/>
<path d="M2325.75 304.327H2308.05V286.648H2325.75V304.327Z" fill="white"/>
<path d="M2351.76 304.327H2334.06V286.648H2351.76V304.327Z" fill="white"/>
<path d="M2377.78 304.327H2360.08V286.648H2377.78V304.327Z" fill="white"/>
<path d="M2403.8 304.327H2386.11V286.648H2403.8V304.327Z" fill="white"/>
<path d="M2325.75 335.962H2308.05V318.282H2325.75V335.962Z" fill="white"/>
<path d="M2351.76 335.962H2334.06V318.282H2351.76V335.962Z" fill="white"/>
<path d="M2377.78 335.962H2360.08V318.282H2377.78V335.962Z" fill="white"/>
<path d="M2403.8 335.962H2386.11V318.282H2403.8V335.962Z" fill="white"/>
<path d="M2325.75 372.027H2308.05V354.347H2325.75V372.027Z" fill="white"/>
<path d="M2351.76 372.027H2334.06V354.347H2351.76V372.027Z" fill="white"/>
<path d="M2377.78 372.027H2360.08V354.347H2377.78V372.027Z" fill="white"/>
<path d="M2403.8 372.027H2386.11V354.347H2403.8V372.027Z" fill="white"/>
<path d="M2325.75 408.092H2308.05V390.412H2325.75V408.092Z" fill="white"/>
<path d="M2351.76 408.092H2334.06V390.412H2351.76V408.092Z" fill="white"/>
<path d="M2377.78 408.092H2360.08V390.412H2377.78V408.092Z" fill="white"/>
<path d="M2403.8 408.092H2386.11V390.412H2403.8V408.092Z" fill="white"/>
<path d="M1002.37 334.443H983.955V316.043H1002.37V334.443Z" fill="white"/>
<path d="M1002.37 362.249H983.955V343.854H1002.37V362.249Z" fill="white"/>
<path d="M976.444 281.841H958.033V263.442H976.444V281.841Z" fill="white"/>
<path d="M1002.37 282.988H983.955V264.594H1002.37V282.988Z" fill="white"/>
<path d="M863.742 281.841H845.331V263.442H863.742V281.841Z" fill="white"/>
<path d="M890.817 281.841H872.401V263.442H890.817V281.841Z" fill="white"/>
<path d="M917.888 281.841H899.477V263.442H917.888V281.841Z" fill="white"/>
<path d="M944.959 281.841H926.548V263.442H944.959V281.841Z" fill="white"/>
<path d="M976.444 309.158H958.033V290.758H976.444V309.158Z" fill="white"/>
<path d="M1002.37 310.305H983.955V291.906H1002.37V310.305Z" fill="white"/>
<path d="M863.742 309.158H845.331V290.758H863.742V309.158Z" fill="white"/>
<path d="M890.817 309.158H872.401V290.758H890.817V309.158Z" fill="white"/>
<path d="M917.888 309.158H899.477V290.758H917.888V309.158Z" fill="white"/>
<path d="M944.959 309.158H926.548V290.758H944.959V309.158Z" fill="white"/>
<path d="M863.742 333.29H845.331V314.891H863.742V333.29Z" fill="white"/>
<path d="M890.817 333.29H872.401V314.891H890.817V333.29Z" fill="white"/>
<path d="M917.888 333.29H899.477V314.891H917.888V333.29Z" fill="white"/>
<path d="M944.959 333.29H926.548V314.891H944.959V333.29Z" fill="white"/>
<path d="M863.742 361.101H845.331V342.702H863.742V361.101Z" fill="white"/>
<path d="M890.817 361.101H872.401V342.702H890.817V361.101Z" fill="white"/>
<path d="M917.888 361.101H899.477V342.702H917.888V361.101Z" fill="white"/>
<path d="M944.959 361.101H926.548V342.702H944.959V361.101Z" fill="white"/>
<path d="M976.444 393.121H958.033V374.727H976.444V393.121Z" fill="white"/>
<path d="M1002.37 394.273H983.955V375.874H1002.37V394.273Z" fill="white"/>
<path d="M863.742 393.121H845.331V374.727H863.742V393.121Z" fill="white"/>
<path d="M890.817 393.121H872.401V374.727H890.817V393.121Z" fill="white"/>
<path d="M917.888 393.121H899.477V374.727H917.888V393.121Z" fill="white"/>
<path d="M944.959 393.121H926.548V374.727H944.959V393.121Z" fill="white"/>
<path d="M976.444 420.438H958.033V402.043H976.444V420.438Z" fill="white"/>
<path d="M1002.37 421.59H983.955V403.196H1002.37V421.59Z" fill="white"/>
<path d="M863.742 420.438H845.331V402.043H863.742V420.438Z" fill="white"/>
<path d="M890.817 420.438H872.401V402.043H890.817V420.438Z" fill="white"/>
<path d="M917.888 420.438H899.477V402.043H917.888V420.438Z" fill="white"/>
<path d="M944.959 420.438H926.548V402.043H944.959V420.438Z" fill="white"/>
<path d="M974.868 448.145H956.461V429.755H974.868V448.145Z" fill="white"/>
<path d="M1000.79 449.302H982.384V430.907H1000.79V449.302Z" fill="white"/>
<path d="M862.165 448.145H843.759V429.755H862.165V448.145Z" fill="white"/>
<path d="M889.241 448.145H870.825V429.755H889.241V448.145Z" fill="white"/>
<path d="M916.311 448.145H897.905V429.755H916.311V448.145Z" fill="white"/>
<path d="M943.387 448.145H924.976V429.755H943.387V448.145Z" fill="white"/>
<path d="M974.868 478.797H956.461V460.402H974.868V478.797Z" fill="white"/>
<path d="M1000.79 479.954H982.384V461.554H1000.79V479.954Z" fill="white"/>
<path d="M862.165 478.797H843.759V460.402H862.165V478.797Z" fill="white"/>
<path d="M889.241 478.797H870.825V460.402H889.241V478.797Z" fill="white"/>
<path d="M916.311 478.797H897.905V460.402H916.311V478.797Z" fill="white"/>
<path d="M943.387 478.797H924.976V460.402H943.387V478.797Z" fill="white"/>
<path d="M862.165 512.129H843.759V493.734H862.165V512.129Z" fill="white"/>
<path d="M889.241 512.129H870.825V493.734H889.241V512.129Z" fill="white"/>
<path d="M916.311 512.129H897.905V493.734H916.311V512.129Z" fill="white"/>
<path d="M943.387 512.129H924.976V493.734H943.387V512.129Z" fill="white"/>
<path d="M2334.54 350.373V416.967H2327.37V350.373H2334.54Z" fill="#96A36F"/>
<path d="M2295.82 397.279H2366.09V436.904H2295.82V397.279Z" fill="#96A36F"/>
</g>
<defs>
<clipPath id="clip0_36_137">
<rect width="2418" height="769" fill="white"/>
</clipPath>
</defs>
</svg>
