<svg width="95" height="21" viewBox="0 0 95 21" fill="none" xmlns="http://www.w3.org/2000/svg">
<path d="M1.10152 20.5846L0.695785 20.2601L3.13019 8.87243C3.31052 8.0249 3.48183 7.17736 3.64412 6.32983C3.82445 5.46426 3.97773 4.59869 4.10396 3.73313L2.31872 3.46264L2.48102 2.43477L8.13426 0.920029L8.51294 1.24462L6.67361 9.87325C7.62934 8.91752 8.58507 8.17818 9.54081 7.65523C10.4965 7.13228 11.4072 6.87081 12.2728 6.87081C12.8678 6.87081 13.3547 7.06015 13.7334 7.43884C14.1301 7.81752 14.3285 8.38555 14.3285 9.14292C14.3285 9.86423 14.2203 10.6487 14.0039 11.4962L12.7055 16.6084C12.6514 16.8609 12.5973 17.0863 12.5432 17.2847C12.5072 17.465 12.4891 17.6273 12.4891 17.7716C12.4891 18.1322 12.6244 18.3125 12.8949 18.3125C13.3818 18.3125 14.049 17.7535 14.8965 16.6355L15.735 17.1765C15.3924 17.7716 14.9506 18.3486 14.4096 18.9076C13.8867 19.4486 13.2916 19.8994 12.6244 20.2601C11.9752 20.6027 11.2629 20.774 10.4875 20.774C9.1531 20.774 8.48589 20.206 8.48589 19.0699C8.48589 18.6552 8.53098 18.2314 8.62114 17.7986C8.7113 17.3658 8.81048 16.9511 8.91868 16.5543L9.94654 12.497C10.0547 12.0822 10.1359 11.7036 10.19 11.3609C10.2621 11.0003 10.2982 10.7118 10.2982 10.4954C10.2982 9.93636 10.0547 9.65685 9.56785 9.65685C9.17114 9.65685 8.70229 9.7921 8.16131 10.0626C7.63836 10.3331 7.06131 10.7568 6.43017 11.3339L5.7269 14.5527C5.49247 15.7068 5.2851 16.7257 5.10477 17.6093C4.92444 18.4748 4.76215 19.3945 4.61789 20.3683L1.10152 20.5846ZM24.3123 8.3585C23.9336 8.3585 23.5279 8.5208 23.0951 8.84538C22.6803 9.15194 22.2836 9.58472 21.9049 10.1437C21.5263 10.7027 21.2017 11.3429 20.9312 12.0642C20.6787 12.7855 20.5345 13.5429 20.4984 14.3363C21.7246 13.9035 22.6894 13.4257 23.3926 12.9027C24.0959 12.3618 24.5918 11.8118 24.8803 11.2527C25.1689 10.6937 25.3131 10.1708 25.3131 9.6839C25.3131 9.23309 25.2139 8.89948 25.0156 8.68309C24.8172 8.4667 24.5828 8.3585 24.3123 8.3585ZM21.4181 20.774C20.0115 20.774 18.8664 20.3232 17.9828 19.4215C17.1173 18.5199 16.6845 17.2757 16.6845 15.6888C16.6845 14.5167 16.8828 13.4076 17.2796 12.3618C17.6943 11.2978 18.2623 10.3601 18.9837 9.54866C19.705 8.71916 20.5525 8.06998 21.5263 7.60113C22.5 7.11425 23.5549 6.87081 24.691 6.87081C25.9172 6.87081 26.8459 7.1413 27.477 7.68228C28.1262 8.22326 28.4508 8.92653 28.4508 9.7921C28.4508 10.9282 27.8016 11.9921 26.5033 12.9839C25.223 13.9576 23.2394 14.7781 20.5525 15.4453C20.6427 16.3109 20.9222 16.9511 21.391 17.3658C21.8599 17.7806 22.464 17.9879 23.2033 17.9879C23.9967 17.9879 24.7 17.7896 25.3131 17.3929C25.9262 16.9961 26.4402 16.5363 26.8549 16.0134L27.6123 16.5543C27.2516 17.2396 26.7647 17.9068 26.1516 18.556C25.5566 19.2051 24.8623 19.7371 24.0689 20.1519C23.2754 20.5666 22.3918 20.774 21.4181 20.774ZM32.9927 15.6076C32.9927 16.4552 33.128 17.0683 33.3984 17.447C33.6689 17.8257 34.0296 18.015 34.4804 18.015C34.8411 18.015 35.2107 17.8978 35.5894 17.6634C35.9861 17.4109 36.4009 17.0773 36.8337 16.6625C36.8517 16.5724 36.8607 16.4912 36.8607 16.4191C36.8787 16.347 36.8968 16.2748 36.9148 16.2027L38.4296 9.25112C37.9787 8.99866 37.5099 8.87243 37.023 8.87243C36.4279 8.87243 35.7968 9.17899 35.1296 9.7921C34.7148 10.1708 34.3452 10.7027 34.0206 11.388C33.696 12.0552 33.4435 12.7675 33.2632 13.5249C33.0829 14.2642 32.9927 14.9585 32.9927 15.6076ZM38.8894 20.774C38.2222 20.774 37.6812 20.5756 37.2664 20.1789C36.8517 19.7642 36.6443 19.142 36.6443 18.3125C36.6443 18.2584 36.6443 18.2043 36.6443 18.1502C36.6443 18.0961 36.6443 18.0511 36.6443 18.015C35.923 18.8265 35.1476 19.4937 34.3181 20.0166C33.4886 20.5215 32.6952 20.774 31.9378 20.774C31.4329 20.774 30.964 20.6478 30.5312 20.3953C30.0985 20.1609 29.7468 19.7732 29.4763 19.2322C29.2058 18.6732 29.0706 17.9338 29.0706 17.0142C29.0706 16.0404 29.2509 15.0757 29.6116 14.1199C29.9903 13.1462 30.4952 12.2265 31.1263 11.3609C31.7755 10.4954 32.4968 9.72899 33.2902 9.06178C34.0837 8.37654 34.9042 7.84457 35.7517 7.46589C36.5992 7.06917 37.4197 6.87081 38.2132 6.87081C38.6279 6.87081 39.0156 6.95196 39.3763 7.11425C39.7369 7.25851 40.0705 7.46589 40.3771 7.73638L42.3517 6.81671L42.8115 7.1413L40.6476 16.6084C40.5754 16.8429 40.5213 17.0593 40.4853 17.2576C40.4492 17.456 40.4312 17.6273 40.4312 17.7716C40.4312 18.1322 40.5935 18.3125 40.9181 18.3125C41.1705 18.3125 41.45 18.1683 41.7566 17.8797C42.0812 17.5732 42.4508 17.1494 42.8656 16.6084L43.7041 17.1765C43.3795 17.7355 42.9648 18.2945 42.4599 18.8535C41.973 19.4125 41.423 19.8724 40.8099 20.233C40.2148 20.5937 39.5746 20.774 38.8894 20.774ZM45.4173 16.2298L47.0402 8.84538H45.0115L45.2279 7.54703L47.6082 7.24949L49.3935 3.57083H51.882L51.0976 7.30359H53.9107L53.6131 8.98063L50.773 8.89948L49.1771 16.5814C49.0689 17.0863 49.0148 17.474 49.0148 17.7445C49.0148 18.1232 49.1771 18.3125 49.5017 18.3125C49.9164 18.3125 50.5656 17.7535 51.4492 16.6355L52.2607 17.1765C51.9181 17.7896 51.4943 18.3756 50.9894 18.9347C50.4845 19.4756 49.9074 19.9174 49.2582 20.2601C48.6091 20.6027 47.8968 20.774 47.1214 20.774C46.5083 20.774 46.0033 20.6207 45.6066 20.3142C45.2279 20.0076 45.0386 19.5478 45.0386 18.9347C45.0386 18.5379 45.0747 18.1052 45.1468 17.6363C45.237 17.1494 45.3271 16.6806 45.4173 16.2298ZM53.8259 20.5846L53.4202 20.2601L55.8546 8.87243C56.0349 8.0249 56.2062 7.17736 56.3685 6.32983C56.5489 5.46426 56.7021 4.59869 56.8284 3.73313L55.0431 3.46264L55.2054 2.43477L60.8587 0.920029L61.2373 1.24462L59.398 9.87325C60.3537 8.91752 61.3095 8.17818 62.2652 7.65523C63.2209 7.13228 64.1316 6.87081 64.9972 6.87081C65.5922 6.87081 66.0791 7.06015 66.4578 7.43884C66.8545 7.81752 67.0529 8.38555 67.0529 9.14292C67.0529 9.86423 66.9447 10.6487 66.7283 11.4962L65.4299 16.6084C65.3758 16.8609 65.3217 17.0863 65.2676 17.2847C65.2316 17.465 65.2135 17.6273 65.2135 17.7716C65.2135 18.1322 65.3488 18.3125 65.6193 18.3125C66.1062 18.3125 66.7734 17.7535 67.6209 16.6355L68.4594 17.1765C68.1168 17.7716 67.675 18.3486 67.134 18.9076C66.6111 19.4486 66.016 19.8994 65.3488 20.2601C64.6996 20.6027 63.9873 20.774 63.2119 20.774C61.8775 20.774 61.2103 20.206 61.2103 19.0699C61.2103 18.6552 61.2554 18.2314 61.3455 17.7986C61.4357 17.3658 61.5349 16.9511 61.6431 16.5543L62.6709 12.497C62.7791 12.0822 62.8603 11.7036 62.9144 11.3609C62.9865 11.0003 63.0226 10.7118 63.0226 10.4954C63.0226 9.93636 62.7791 9.65685 62.2923 9.65685C61.8955 9.65685 61.4267 9.7921 60.8857 10.0626C60.3628 10.3331 59.7857 10.7568 59.1546 11.3339L58.4513 14.5527C58.2169 15.7068 58.0095 16.7257 57.8292 17.6093C57.6488 18.4748 57.4866 19.3945 57.3423 20.3683L53.8259 20.5846ZM77.0367 8.3585C76.658 8.3585 76.2523 8.5208 75.8195 8.84538C75.4048 9.15194 75.008 9.58472 74.6293 10.1437C74.2507 10.7027 73.9261 11.3429 73.6556 12.0642C73.4031 12.7855 73.2589 13.5429 73.2228 14.3363C74.449 13.9035 75.4138 13.4257 76.117 12.9027C76.8203 12.3618 77.3162 11.8118 77.6047 11.2527C77.8933 10.6937 78.0375 10.1708 78.0375 9.6839C78.0375 9.23309 77.9383 8.89948 77.74 8.68309C77.5416 8.4667 77.3072 8.3585 77.0367 8.3585ZM74.1425 20.774C72.7359 20.774 71.5908 20.3232 70.7072 19.4215C69.8417 18.5199 69.4089 17.2757 69.4089 15.6888C69.4089 14.5167 69.6073 13.4076 70.004 12.3618C70.4187 11.2978 70.9867 10.3601 71.7081 9.54866C72.4294 8.71916 73.2769 8.06998 74.2507 7.60113C75.2244 7.11425 76.2793 6.87081 77.4154 6.87081C78.6416 6.87081 79.5703 7.1413 80.2014 7.68228C80.8506 8.22326 81.1752 8.92653 81.1752 9.7921C81.1752 10.9282 80.526 11.9921 79.2277 12.9839C77.9474 13.9576 75.9638 14.7781 73.2769 15.4453C73.3671 16.3109 73.6466 16.9511 74.1154 17.3658C74.5843 17.7806 75.1884 17.9879 75.9277 17.9879C76.7211 17.9879 77.4244 17.7896 78.0375 17.3929C78.6506 16.9961 79.1646 16.5363 79.5793 16.0134L80.3367 16.5543C79.976 17.2396 79.4891 17.9068 78.876 18.556C78.281 19.2051 77.5867 19.7371 76.7933 20.1519C75.9998 20.5666 75.1162 20.774 74.1425 20.774ZM82.168 20.2601L84.386 9.6839L82.4926 9.38636L82.6819 8.38555L87.8753 6.84376L88.3892 7.27654L87.686 11.3068C88.3171 10.0265 89.0204 8.97161 89.7958 8.14211C90.5892 7.29458 91.3737 6.87081 92.1491 6.87081C92.6179 6.87081 93.0507 6.98802 93.4474 7.22244C93.8441 7.43884 94.1236 7.77244 94.2859 8.22326C94.2679 8.8544 94.1056 9.39538 93.799 9.8462C93.4925 10.279 93.0417 10.4954 92.4466 10.4954C92.0499 10.4954 91.6982 10.3962 91.3917 10.1978C91.0851 9.99947 90.7605 9.71997 90.4179 9.35932C89.6786 10.1347 89.0565 10.9372 88.5515 11.7667C88.0647 12.5781 87.6319 13.4257 87.2532 14.3093L87.1991 14.5798C87.0188 15.5355 86.8294 16.5002 86.6311 17.474C86.4507 18.4297 86.2614 19.3945 86.063 20.3683L82.5467 20.5846L82.168 20.2601Z" fill="#8E5077"/>
</svg>
