<svg width="52" height="57" viewBox="0 0 52 57" fill="none" xmlns="http://www.w3.org/2000/svg">
<rect x="0.613693" y="3.44702" width="50.422" height="50.422" rx="8.14157" fill="#8E5077"/>
<path d="M13.1841 45.479L12.4412 44.8847L16.8985 24.0345C17.2287 22.4827 17.5423 20.9309 17.8395 19.3791C18.1697 17.7943 18.4503 16.2095 18.6814 14.6246L15.4127 14.1294L15.7099 12.2474L26.0607 9.47398L26.7541 10.0683L23.3864 25.8669C25.1363 24.117 26.8862 22.7633 28.6361 21.8058C30.386 20.8483 32.0533 20.3696 33.6381 20.3696C34.7277 20.3696 35.6192 20.7163 36.3125 21.4096C37.0389 22.103 37.4021 23.143 37.4021 24.5297C37.4021 25.8504 37.204 27.2867 36.8078 28.8385L34.4305 38.1988C34.3315 38.661 34.2324 39.0737 34.1334 39.4369C34.0674 39.7671 34.0343 40.0642 34.0343 40.3284C34.0343 40.9887 34.282 41.3189 34.7772 41.3189C35.6687 41.3189 36.8903 40.2954 38.4421 38.2483L39.9774 39.2388C39.3501 40.3284 38.5412 41.3849 37.5507 42.4084C36.5932 43.399 35.5036 44.2244 34.282 44.8847C33.0934 45.512 31.7892 45.8257 30.3695 45.8257C27.9262 45.8257 26.7046 44.7857 26.7046 42.7056C26.7046 41.9462 26.7871 41.1703 26.9522 40.3779C27.1173 39.5855 27.2989 38.8261 27.497 38.0997L29.3789 30.6709C29.577 29.9115 29.7256 29.2182 29.8247 28.5908C29.9567 27.9305 30.0228 27.4022 30.0228 27.006C30.0228 25.9825 29.577 25.4707 28.6856 25.4707C27.9592 25.4707 27.1008 25.7184 26.1103 26.2136C25.1528 26.7089 24.0962 27.4848 22.9406 28.5413L21.653 34.4348C21.2237 36.5479 20.844 38.4134 20.5139 40.0312C20.1837 41.616 19.8866 43.2999 19.6224 45.0828L13.1841 45.479Z" fill="white"/>
<path d="M20.9719 14.5394H35.137L32.791 17.5215H20.9719V14.5394Z" fill="white"/>
</svg>
