<svg width="1236" height="421" viewBox="0 0 1236 421" fill="none" xmlns="http://www.w3.org/2000/svg">
<path d="M41.7415 117.447L45.8159 97.445H160.64L156.565 117.447L126.934 120.78L107.302 225.603C104.339 240.913 101.499 256.223 98.7831 271.533C96.0668 286.843 93.3506 302.153 90.6343 317.463L119.525 320.796L115.451 340.798H0.997481L5.07188 320.796L34.3335 317.833L54.3351 212.269C57.0514 196.959 59.7676 181.649 62.4839 166.339C65.4471 151.03 68.1634 135.72 70.6327 120.41L41.7415 117.447ZM177.299 117.447L181.374 97.445H296.198L292.123 117.447L262.491 120.78L242.86 225.603C239.897 240.913 237.057 256.223 234.341 271.533C231.625 286.843 228.908 302.153 226.192 317.463L255.083 320.796L251.009 340.798H136.555L140.63 320.796L169.891 317.833L189.893 212.269C192.609 196.959 195.325 181.649 198.042 166.339C201.005 151.03 203.721 135.72 206.19 120.41L177.299 117.447ZM369.797 176.34C364.612 176.34 359.056 178.563 353.129 183.007C347.45 187.205 342.017 193.132 336.832 200.787C331.646 208.442 327.201 217.208 323.497 227.085C320.04 236.962 318.065 247.334 317.571 258.199C334.362 252.272 347.573 245.729 357.204 238.567C366.834 231.159 373.625 223.628 377.576 215.973C381.527 208.318 383.502 201.157 383.502 194.49C383.502 188.317 382.144 183.748 379.428 180.785C376.711 177.822 373.501 176.34 369.797 176.34ZM330.164 346.354C310.904 346.354 295.223 340.181 283.124 327.834C271.271 315.487 265.344 298.449 265.344 276.719C265.344 260.668 268.061 245.482 273.493 231.159C279.173 216.59 286.951 203.75 296.828 192.638C306.706 181.279 318.312 172.389 331.646 165.969C344.98 159.302 359.426 155.968 374.983 155.968C391.774 155.968 404.491 159.672 413.134 167.08C422.024 174.488 426.468 184.119 426.468 195.971C426.468 211.528 417.579 226.097 399.8 239.679C382.267 253.013 355.105 264.249 318.312 273.385C319.546 285.238 323.374 294.004 329.794 299.683C336.214 305.363 344.487 308.203 354.611 308.203C365.476 308.203 375.106 305.486 383.502 300.054C391.898 294.621 398.935 288.325 404.615 281.163L414.986 288.571C410.047 297.955 403.38 307.091 394.984 315.981C386.836 324.871 377.329 332.155 366.464 337.835C355.599 343.514 343.499 346.354 330.164 346.354ZM470.144 275.607C470.144 287.213 471.996 295.609 475.7 300.795C479.404 305.98 484.343 308.573 490.516 308.573C495.455 308.573 500.517 306.968 505.702 303.758C511.135 300.301 516.814 295.733 522.741 290.053C522.988 288.818 523.111 287.707 523.111 286.719C523.358 285.732 523.605 284.744 523.852 283.756L544.594 188.563C538.421 185.106 532.001 183.378 525.333 183.378C517.185 183.378 508.542 187.576 499.405 195.971C493.726 201.157 488.664 208.442 484.219 217.825C479.774 226.962 476.317 236.715 473.848 247.087C471.379 257.211 470.144 266.718 470.144 275.607ZM550.891 346.354C541.755 346.354 534.347 343.638 528.667 338.205C522.988 332.526 520.148 324.006 520.148 312.647C520.148 311.907 520.148 311.166 520.148 310.425C520.148 309.684 520.148 309.067 520.148 308.573C510.271 319.685 499.652 328.822 488.293 335.983C476.935 342.897 466.069 346.354 455.698 346.354C448.784 346.354 442.364 344.625 436.437 341.168C430.511 337.958 425.696 332.649 421.992 325.241C418.288 317.586 416.436 307.462 416.436 294.868C416.436 281.534 418.905 268.323 423.844 255.235C429.029 241.901 435.944 229.307 444.586 217.455C453.476 205.602 463.353 195.107 474.218 185.971C485.083 176.587 496.319 169.303 507.925 164.117C519.531 158.684 530.766 155.968 541.631 155.968C547.311 155.968 552.62 157.079 557.558 159.302C562.497 161.277 567.065 164.117 571.263 167.821L598.302 155.227L604.599 159.672L574.967 289.312C573.979 292.522 573.239 295.486 572.745 298.202C572.251 300.918 572.004 303.264 572.004 305.239C572.004 310.178 574.226 312.647 578.671 312.647C582.128 312.647 585.956 310.672 590.153 306.721C594.598 302.523 599.66 296.72 605.34 289.312L616.822 297.091C612.377 304.746 606.698 312.401 599.784 320.055C593.117 327.71 585.585 334.007 577.189 338.946C569.041 343.885 560.275 346.354 550.891 346.354ZM621.762 284.127L643.986 183.007H616.206L619.169 165.228L651.764 161.154L676.211 110.779H710.288L699.546 161.895H738.068L733.993 184.859L695.101 183.748L673.248 288.942C671.766 295.856 671.025 301.165 671.025 304.869C671.025 310.055 673.248 312.647 677.692 312.647C683.372 312.647 692.261 304.993 704.361 289.683L715.473 297.091C710.781 305.486 704.978 313.512 698.064 321.167C691.15 328.575 683.248 334.625 674.359 339.316C665.469 344.008 655.715 346.354 645.097 346.354C636.701 346.354 629.787 344.255 624.355 340.057C619.169 335.859 616.576 329.562 616.576 321.167C616.576 315.734 617.07 309.808 618.058 303.387C619.293 296.72 620.527 290.3 621.762 284.127ZM718.387 343.761L712.831 339.316L746.167 183.378C748.636 171.772 750.982 160.166 753.205 148.56C755.674 136.707 757.773 124.855 759.502 113.002L735.055 109.298L737.278 95.2226L814.691 74.4802L819.877 78.925L794.69 197.083C807.777 183.995 820.864 173.871 833.952 166.71C847.039 159.549 859.51 155.968 871.362 155.968C879.511 155.968 886.178 158.561 891.364 163.747C896.796 168.932 899.513 176.711 899.513 187.082C899.513 196.959 898.031 207.701 895.068 219.307L877.289 289.312C876.548 292.769 875.807 295.856 875.066 298.572C874.572 301.042 874.326 303.264 874.326 305.239C874.326 310.178 876.178 312.647 879.882 312.647C886.549 312.647 895.685 304.993 907.291 289.683L918.774 297.091C914.082 305.239 908.032 313.141 900.624 320.796C893.463 328.204 885.314 334.378 876.178 339.316C867.288 344.008 857.534 346.354 846.916 346.354C828.643 346.354 819.506 338.575 819.506 323.019C819.506 317.339 820.124 311.536 821.358 305.61C822.593 299.683 823.951 294.004 825.433 288.571L839.508 233.011C840.99 227.332 842.101 222.146 842.842 217.455C843.829 212.516 844.323 208.565 844.323 205.602C844.323 197.947 840.99 194.119 834.322 194.119C828.89 194.119 822.47 195.971 815.062 199.675C807.9 203.379 799.999 209.182 791.356 217.084L781.726 261.162C778.515 276.966 775.676 290.917 773.206 303.017C770.737 314.87 768.515 327.463 766.539 340.798L718.387 343.761ZM1017.71 176.34C1012.52 176.34 1006.97 178.563 1001.04 183.007C995.361 187.205 989.928 193.132 984.742 200.787C979.557 208.442 975.112 217.208 971.408 227.085C967.951 236.962 965.975 247.334 965.482 258.199C982.273 252.272 995.484 245.729 1005.11 238.567C1014.74 231.159 1021.54 223.628 1025.49 215.973C1029.44 208.318 1031.41 201.157 1031.41 194.49C1031.41 188.317 1030.05 183.748 1027.34 180.785C1024.62 177.822 1021.41 176.34 1017.71 176.34ZM978.075 346.354C958.814 346.354 943.134 340.181 931.034 327.834C919.182 315.487 913.255 298.449 913.255 276.719C913.255 260.668 915.971 245.482 921.404 231.159C927.083 216.59 934.862 203.75 944.739 192.638C954.617 181.279 966.222 172.389 979.557 165.969C992.891 159.302 1007.34 155.968 1022.89 155.968C1039.69 155.968 1052.4 159.672 1061.04 167.08C1069.93 174.488 1074.38 184.119 1074.38 195.971C1074.38 211.528 1065.49 226.097 1047.71 239.679C1030.18 253.013 1003.02 264.249 966.222 273.385C967.457 285.238 971.285 294.004 977.705 299.683C984.125 305.363 992.397 308.203 1002.52 308.203C1013.39 308.203 1023.02 305.486 1031.41 300.054C1039.81 294.621 1046.85 288.325 1052.53 281.163L1062.9 288.571C1057.96 297.955 1051.29 307.091 1042.9 315.981C1034.75 324.871 1025.24 332.155 1014.37 337.835C1003.51 343.514 991.41 346.354 978.075 346.354ZM1069.45 339.316L1099.83 194.49L1073.9 190.415L1076.49 176.711L1147.61 155.598L1154.65 161.524L1145.02 216.714C1153.66 199.182 1163.29 184.736 1173.91 173.377C1184.77 161.771 1195.51 155.968 1206.13 155.968C1212.55 155.968 1218.48 157.573 1223.91 160.783C1229.34 163.747 1233.17 168.315 1235.39 174.488C1235.15 183.131 1232.92 190.539 1228.73 196.712C1224.53 202.639 1218.35 205.602 1210.21 205.602C1204.77 205.602 1199.96 204.244 1195.76 201.527C1191.56 198.811 1187.12 194.984 1182.43 190.045C1172.3 200.663 1163.78 211.652 1156.87 223.011C1150.2 234.123 1144.27 245.729 1139.09 257.828L1138.35 261.532C1135.88 274.62 1133.29 287.831 1130.57 301.165C1128.1 314.253 1125.51 327.463 1122.79 340.798L1074.64 343.761L1069.45 339.316Z" fill="#8E5077"/>
<rect x="80.0078" y="196.993" width="129.761" height="18" fill="#8E5077"/>
<rect x="80.0078" y="225.798" width="129.761" height="18" fill="#8E5077"/>
</svg>
