<svg width="28" height="37" viewBox="0 0 28 37" fill="none" xmlns="http://www.w3.org/2000/svg">
<path d="M13.8251 36.9309C12.7712 35.9043 11.7209 34.9298 10.7251 33.9008C8.02064 31.1064 5.54707 28.1224 3.50924 24.7975C2.0978 22.4933 0.882924 20.0919 0.34653 17.417C-0.566406 12.8571 0.622424 8.84776 3.70344 5.41153C5.85967 3.00545 8.59966 1.59993 11.7825 1.0955C19.0351 -0.0518833 26.0698 4.92486 27.4267 12.1147C27.9691 14.9897 27.5333 17.7296 26.4463 20.4033C25.0491 23.8372 22.9947 26.8602 20.6845 29.7257C18.7808 32.0974 16.6961 34.3179 14.4491 36.3673C14.2644 36.5366 14.0785 36.7024 13.8251 36.9309ZM13.8523 8.02364C12.3422 8.03146 10.8966 8.63684 9.83154 9.70744C8.7665 10.778 8.16863 12.2268 8.16865 13.7369C8.16865 16.8155 10.7583 19.3909 13.8369 19.3909C16.97 19.3909 19.5513 16.812 19.5383 13.6943C19.5283 12.1907 18.9256 10.7518 17.861 9.69011C16.7964 8.62837 15.3558 8.02953 13.8523 8.02364Z" fill="#D7D7D7"/>
<path d="M22.047 13.5294C22.047 18.0546 18.3786 21.7231 13.8534 21.7231C9.32811 21.7231 5.65967 18.0546 5.65967 13.5294C5.65967 9.00413 9.32811 5.33569 13.8534 5.33569C18.3786 5.33569 22.047 9.00413 22.047 13.5294Z" fill="#D7D7D7"/>
<path d="M8.5186 23.6068L8.18881 23.343L10.1675 14.087C10.3141 13.3982 10.4533 12.7093 10.5852 12.0204C10.7318 11.3169 10.8564 10.6133 10.959 9.90979L9.50795 9.68993L9.63986 8.85448L14.2348 7.62329L14.5426 7.88712L13.0476 14.9005C13.8244 14.1237 14.6013 13.5227 15.3781 13.0977C16.1549 12.6726 16.8951 12.4601 17.5986 12.4601C18.0823 12.4601 18.4781 12.614 18.7859 12.9218C19.1083 13.2296 19.2695 13.6913 19.2695 14.3069C19.2695 14.8932 19.1816 15.5308 19.0057 16.2196L17.9504 20.3749C17.9064 20.5801 17.8625 20.7633 17.8185 20.9246C17.7892 21.0711 17.7745 21.203 17.7745 21.3203C17.7745 21.6134 17.8844 21.76 18.1043 21.76C18.5 21.76 19.0424 21.3056 19.7312 20.3969L20.4128 20.8366C20.1343 21.3203 19.7752 21.7893 19.3355 22.2437C18.9104 22.6834 18.4268 23.0498 17.8844 23.343C17.3568 23.6214 16.7778 23.7607 16.1476 23.7607C15.063 23.7607 14.5207 23.299 14.5207 22.3756C14.5207 22.0385 14.5573 21.694 14.6306 21.3423C14.7039 20.9905 14.7845 20.6534 14.8724 20.3309L15.7079 17.0331C15.7958 16.696 15.8618 16.3882 15.9057 16.1097C15.9644 15.8166 15.9937 15.5821 15.9937 15.4062C15.9937 14.9518 15.7958 14.7246 15.4001 14.7246C15.0776 14.7246 14.6965 14.8346 14.2568 15.0544C13.8318 15.2743 13.3627 15.6187 12.8498 16.0877L12.2781 18.704C12.0876 19.6421 11.919 20.4702 11.7725 21.1884C11.6259 21.8919 11.494 22.6394 11.3767 23.4309L8.5186 23.6068Z" fill="white"/>
<path d="M11.9758 9.84851H18.264L17.2226 11.1723H11.9758V9.84851Z" fill="white"/>
</svg>
