<svg width="29" height="37" viewBox="0 0 29 37" fill="none" xmlns="http://www.w3.org/2000/svg">
<path d="M14.5994 36.9309C13.5456 35.9043 12.4953 34.9298 11.4994 33.9008C8.79498 31.1064 6.32141 28.1224 4.28358 24.7975C2.87214 22.4933 1.65726 20.0919 1.12087 17.417C0.207932 12.8571 1.39676 8.84776 4.47777 5.41153C6.63401 3.00545 9.374 1.59993 12.5568 1.0955C19.8094 -0.0518833 26.8441 4.92486 28.2011 12.1147C28.7434 14.9897 28.3077 17.7296 27.2207 20.4033C25.8234 23.8372 23.769 26.8602 21.4589 29.7257C19.5551 32.0974 17.4704 34.3179 15.2234 36.3673C15.0387 36.5366 14.8528 36.7024 14.5994 36.9309ZM14.6266 8.02364C13.1165 8.03146 11.6709 8.63684 10.6059 9.70744C9.54083 10.778 8.94297 12.2268 8.94299 13.7369C8.94299 16.8155 11.5326 19.3909 14.6112 19.3909C17.7444 19.3909 20.3257 16.812 20.3127 13.6943C20.3027 12.1907 19.6999 10.7518 18.6353 9.69011C17.5707 8.62837 16.1302 8.02953 14.6266 8.02364Z" fill="#96A36F"/>
<path d="M22.8214 13.5294C22.8214 18.0546 19.1529 21.7231 14.6277 21.7231C10.1024 21.7231 6.43401 18.0546 6.43401 13.5294C6.43401 9.00413 10.1024 5.33569 14.6277 5.33569C19.1529 5.33569 22.8214 9.00413 22.8214 13.5294Z" fill="#96A36F"/>
<path d="M9.29294 23.6068L8.96315 23.343L10.9419 14.087C11.0884 13.3982 11.2277 12.7093 11.3596 12.0204C11.5061 11.3169 11.6307 10.6133 11.7333 9.90979L10.2823 9.68993L10.4142 8.85448L15.0092 7.62329L15.317 7.88712L13.822 14.9005C14.5988 14.1237 15.3756 13.5227 16.1524 13.0977C16.9293 12.6726 17.6694 12.4601 18.373 12.4601C18.8567 12.4601 19.2524 12.614 19.5602 12.9218C19.8826 13.2296 20.0439 13.6913 20.0439 14.3069C20.0439 14.8932 19.9559 15.5308 19.78 16.2196L18.7247 20.3749C18.6808 20.5801 18.6368 20.7633 18.5928 20.9246C18.5635 21.0711 18.5489 21.203 18.5489 21.3203C18.5489 21.6134 18.6588 21.76 18.8786 21.76C19.2744 21.76 19.8167 21.3056 20.5056 20.3969L21.1871 20.8366C20.9086 21.3203 20.5495 21.7893 20.1098 22.2437C19.6848 22.6834 19.2011 23.0498 18.6588 23.343C18.1311 23.6214 17.5522 23.7607 16.9219 23.7607C15.8373 23.7607 15.295 23.299 15.295 22.3756C15.295 22.0385 15.3316 21.694 15.4049 21.3423C15.4782 20.9905 15.5588 20.6534 15.6468 20.3309L16.4822 17.0331C16.5702 16.696 16.6361 16.3882 16.6801 16.1097C16.7387 15.8166 16.768 15.5821 16.768 15.4062C16.768 14.9518 16.5702 14.7246 16.1744 14.7246C15.852 14.7246 15.4709 14.8346 15.0312 15.0544C14.6061 15.2743 14.1371 15.6187 13.6241 16.0877L13.0525 18.704C12.8619 19.6421 12.6934 20.4702 12.5468 21.1884C12.4002 21.8919 12.2683 22.6394 12.1511 23.4309L9.29294 23.6068Z" fill="white"/>
<path d="M12.7501 9.84851H19.0384L17.9969 11.1723H12.7501V9.84851Z" fill="white"/>
</svg>
