<svg width="29" height="37" viewBox="0 0 29 37" fill="none" xmlns="http://www.w3.org/2000/svg">
<path d="M14.2122 36.9309C13.1584 35.9043 12.1081 34.9298 11.1123 33.9008C8.40781 31.1064 5.93425 28.1224 3.89642 24.7975C2.48498 22.4933 1.2701 20.0919 0.733707 17.417C-0.179229 12.8571 1.0096 8.84776 4.09061 5.41153C6.24685 3.00545 8.98684 1.59993 12.1697 1.0955C19.4223 -0.0518833 26.457 4.92486 27.8139 12.1147C28.3562 14.9897 27.9205 17.7296 26.8335 20.4033C25.4363 23.8372 23.3819 26.8602 21.0717 29.7257C19.168 32.0974 17.0833 34.3179 14.8363 36.3673C14.6515 36.5366 14.4656 36.7024 14.2122 36.9309ZM14.2395 8.02364C12.7294 8.03146 11.2838 8.63684 10.2187 9.70744C9.15367 10.778 8.55581 12.2268 8.55583 13.7369C8.55583 16.8155 11.1454 19.3909 14.2241 19.3909C17.3572 19.3909 19.9385 16.812 19.9255 13.6943C19.9155 12.1907 19.3128 10.7518 18.2482 9.69011C17.1835 8.62837 15.743 8.02953 14.2395 8.02364Z" fill="#8E5077"/>
<path d="M22.4342 13.5294C22.4342 18.0546 18.7658 21.7231 14.2405 21.7231C9.71528 21.7231 6.04684 18.0546 6.04684 13.5294C6.04684 9.00413 9.71528 5.33569 14.2405 5.33569C18.7658 5.33569 22.4342 9.00413 22.4342 13.5294Z" fill="#8E5077"/>
<path d="M8.90577 23.6068L8.57599 23.343L10.5547 14.087C10.7013 13.3982 10.8405 12.7093 10.9724 12.0204C11.119 11.3169 11.2436 10.6133 11.3462 9.90979L9.89512 9.68993L10.027 8.85448L14.622 7.62329L14.9298 7.88712L13.4348 14.9005C14.2116 14.1237 14.9884 13.5227 15.7653 13.0977C16.5421 12.6726 17.2823 12.4601 17.9858 12.4601C18.4695 12.4601 18.8652 12.614 19.173 12.9218C19.4955 13.2296 19.6567 13.6913 19.6567 14.3069C19.6567 14.8932 19.5688 15.5308 19.3929 16.2196L18.3376 20.3749C18.2936 20.5801 18.2496 20.7633 18.2057 20.9246C18.1764 21.0711 18.1617 21.203 18.1617 21.3203C18.1617 21.6134 18.2716 21.76 18.4915 21.76C18.8872 21.76 19.4295 21.3056 20.1184 20.3969L20.8 20.8366C20.5215 21.3203 20.1624 21.7893 19.7227 22.2437C19.2976 22.6834 18.8139 23.0498 18.2716 23.343C17.744 23.6214 17.165 23.7607 16.5348 23.7607C15.4501 23.7607 14.9078 23.299 14.9078 22.3756C14.9078 22.0385 14.9445 21.694 15.0178 21.3423C15.091 20.9905 15.1717 20.6534 15.2596 20.3309L16.0951 17.0331C16.183 16.696 16.249 16.3882 16.2929 16.1097C16.3515 15.8166 16.3809 15.5821 16.3809 15.4062C16.3809 14.9518 16.183 14.7246 15.7873 14.7246C15.4648 14.7246 15.0837 14.8346 14.644 15.0544C14.219 15.2743 13.7499 15.6187 13.2369 16.0877L12.6653 18.704C12.4748 19.6421 12.3062 20.4702 12.1596 21.1884C12.0131 21.8919 11.8812 22.6394 11.7639 23.4309L8.90577 23.6068Z" fill="white"/>
<path d="M12.363 9.84851H18.6512L17.6098 11.1723H12.363V9.84851Z" fill="white"/>
</svg>
